# Blender v2.63 (sub 0) OBJ File: 'dude.blend'
# www.blender.org
mtllib dude.mtl
o Monkey
v 1.600000 16.801107 2.983439
v -1.600000 16.801107 2.983439
v 1.828571 16.528122 2.679007
v -1.828571 16.528122 2.679007
v 2.000000 16.376465 2.252801
v -2.000000 16.376465 2.252801
v 1.285714 16.073147 2.405018
v -1.285714 16.073147 2.405018
v 1.285714 16.285469 2.800780
v -1.285714 16.285469 2.800780
v 1.285714 16.679781 3.044326
v -1.285714 16.679781 3.044326
v 1.000000 16.801107 3.105212
v -1.000000 16.801107 3.105212
v 0.742857 16.528122 2.892110
v -0.742857 16.528122 2.892110
v 0.571429 16.376465 2.526791
v -0.571429 16.376465 2.526791
v 0.285714 17.104424 2.557234
v -0.285714 17.104424 2.557234
v 0.514286 17.104424 2.892110
v -0.514286 17.104424 2.892110
v 0.885714 17.104424 3.105212
v -0.885714 17.104424 3.105212
v 1.000000 17.438072 3.105212
v -1.000000 17.438072 3.105212
v 0.742857 17.680725 2.892110
v -0.742857 17.680725 2.892110
v 0.571429 17.862715 2.526791
v -0.571429 17.862715 2.526791
v 1.285714 18.166033 2.405018
v -1.285714 18.166033 2.405018
v 1.285714 17.923378 2.800780
v -1.285714 17.923378 2.800780
v 1.285714 17.559399 3.044326
v -1.285714 17.559399 3.044326
v 1.600000 17.438072 2.983439
v -1.600000 17.438072 2.983439
v 1.828571 17.680725 2.679007
v -1.828571 17.680725 2.679007
v 2.000000 17.862715 2.252801
v -2.000000 17.862715 2.252801
v 2.285714 17.104424 2.191915
v -2.285714 17.104424 2.191915
v 2.057143 17.104424 2.618120
v -2.057143 17.104424 2.618120
v 1.714286 17.104424 2.952996
v -1.714286 17.104424 2.952996
v 1.742857 17.104424 3.013883
v -1.742857 17.104424 3.013883
v 1.628571 17.468403 3.044326
v -1.628571 17.468403 3.044326
v 1.285714 17.620062 3.135656
v -1.285714 17.620062 3.135656
v 0.971429 17.468403 3.196542
v -0.971429 17.468403 3.196542
v 0.828571 17.104424 3.196542
v -0.828571 17.104424 3.196542
v 0.971429 16.770775 3.196542
v -0.971429 16.770775 3.196542
v 1.285714 17.104424 3.226986
v -1.285714 17.104424 3.226986
v 1.285714 16.619118 3.135656
v -1.285714 16.619118 3.135656
v 1.628571 16.770775 3.044326
v -1.628571 16.770775 3.044326
v 0.000000 17.832384 2.892110
v 0.000000 17.529068 3.196542
v 0.000000 13.525288 2.861666
v 0.000000 14.920545 3.044326
v 0.000000 15.436183 3.105212
v 0.000000 13.161308 2.800780
v 0.000000 17.741388 2.344131
v 0.000000 18.378353 2.222358
v 0.000000 19.652283 -2.131028
v 0.000000 18.348022 -3.318316
v 0.000000 16.437128 -3.226986
v 0.000000 14.677892 -1.369947
v 0.742857 15.436183 2.191915
v -0.742857 15.436183 2.191915
v 1.142857 14.465569 2.222358
v -1.142857 14.465569 2.222358
v 1.285714 13.464624 2.222358
v -1.285714 13.464624 2.222358
v 1.342857 12.706333 2.070142
v -1.342857 12.706333 2.070142
v 1.200000 12.494012 2.039698
v -1.200000 12.494012 2.039698
v 0.657143 12.403017 2.161471
v -0.657143 12.403017 2.161471
v 0.000000 12.342354 2.252801
v 1.600000 15.618173 2.070142
v -1.600000 15.618173 2.070142
v 2.314286 16.012484 2.100585
v -2.314286 16.012484 2.100585
v 3.028571 16.740444 1.735266
v -3.028571 16.740444 1.735266
v 3.142857 17.832384 2.313688
v -3.142857 17.832384 2.313688
v 2.600000 18.044704 2.435461
v -2.600000 18.044704 2.435461
v 1.800000 18.499680 2.679007
v -1.800000 18.499680 2.679007
v 1.171429 19.106314 2.861667
v -1.171429 19.106314 2.861667
v 0.571429 18.954655 2.952996
v -0.571429 18.954655 2.952996
v 0.228571 18.075037 2.922553
v -0.228571 18.075037 2.922553
v 0.600000 17.771721 3.013883
v -0.600000 17.771721 3.013883
v 0.457143 17.347076 2.983439
v -0.457143 17.347076 2.983439
v 0.742857 16.528122 2.892110
v -0.742857 16.528122 2.892110
v 1.371429 16.224806 2.739893
v -1.371429 16.224806 2.739893
v 1.800000 16.406796 2.618120
v -1.800000 16.406796 2.618120
v 2.285714 16.892103 2.526791
v -2.285714 16.892103 2.526791
v 2.342857 17.316746 2.526791
v -2.342857 17.316746 2.526791
v 2.200000 17.620062 2.587677
v -2.200000 17.620062 2.587677
v 1.571429 17.862715 2.800780
v -1.571429 17.862715 2.800780
v 0.914286 17.984041 2.952996
v -0.914286 17.984041 2.952996
v 0.000000 13.191640 2.861666
v 0.400000 13.373630 2.861666
v -0.400000 13.373630 2.861666
v 0.428571 12.918654 2.770336
v -0.428571 12.918654 2.770336
v 0.228571 12.736665 2.709450
v -0.228571 12.736665 2.709450
v 0.000000 12.706333 2.679007
v 0.000000 15.405851 2.922553
v 0.000000 15.618173 2.892110
v 0.371429 15.587841 2.892110
v -0.371429 15.587841 2.892110
v 0.457143 15.284524 2.922553
v -0.457143 15.284524 2.922553
v 0.314286 15.041871 2.892110
v -0.314286 15.041871 2.892110
v 1.457143 15.982153 2.618120
v -1.457143 15.982153 2.618120
v 2.257143 16.376465 2.435461
v -2.257143 16.376465 2.435461
v 2.657143 16.952766 2.344131
v -2.657143 16.952766 2.344131
v 2.714286 17.620062 2.557234
v -2.714286 17.620062 2.557234
v 2.514286 17.771721 2.831223
v -2.514286 17.771721 2.831223
v 1.600000 18.287359 3.105212
v -1.600000 18.287359 3.105212
v 1.142857 18.651339 3.257429
v -1.142857 18.651339 3.257429
v 0.742857 18.560343 3.318316
v -0.742857 18.560343 3.318316
v 0.371429 17.832384 3.287872
v -0.371429 17.832384 3.287872
v 0.457143 15.769831 3.166099
v -0.457143 15.769831 3.166099
v 0.771429 14.435238 2.770337
v -0.771429 14.435238 2.770337
v 0.914286 13.434294 2.679007
v -0.914286 13.434294 2.679007
v 0.971429 12.979319 2.587677
v -0.971429 12.979319 2.587677
v 0.857143 12.615338 2.465904
v -0.857143 12.615338 2.465904
v 0.600000 12.554675 2.465904
v -0.600000 12.554675 2.465904
v 0.000000 12.494012 2.496347
v 0.000000 16.346132 2.831223
v 0.000000 16.983097 2.983439
v 1.200000 18.014374 2.892110
v -1.200000 18.014374 2.892110
v 0.600000 16.710112 2.922553
v -0.600000 16.710112 2.922553
v 0.485714 16.983097 2.952996
v -0.485714 16.983097 2.952996
v 0.428571 13.494956 2.861666
v -0.428571 13.494956 2.861666
v 0.285714 14.435238 2.922553
v -0.285714 14.435238 2.922553
v 0.000000 14.435238 2.922553
v 0.000000 14.890213 2.892110
v 0.342857 15.102534 3.044326
v -0.342857 15.102534 3.044326
v 0.485714 15.284524 3.105212
v -0.485714 15.284524 3.105212
v 0.400000 15.648504 3.044326
v -0.400000 15.648504 3.044326
v 0.142857 15.678836 3.044326
v -0.142857 15.678836 3.044326
v 0.000000 15.375520 3.226986
v 0.171429 15.587841 3.166099
v -0.171429 15.587841 3.166099
v 0.342857 15.557509 3.166099
v -0.342857 15.557509 3.166099
v 0.400000 15.284524 3.226986
v -0.400000 15.284524 3.226986
v 0.285714 15.193529 3.135656
v -0.285714 15.193529 3.135656
v 0.000000 15.041871 3.135656
v 0.942857 14.950876 2.161472
v -0.942857 14.950876 2.161472
v 0.600000 15.223861 2.770337
v -0.600000 15.223861 2.770337
v 0.657143 14.950876 2.770337
v -0.657143 14.950876 2.770337
v 0.857143 15.193529 2.161472
v -0.857143 15.193529 2.161472
v 0.000000 12.766996 2.679007
v 0.171429 12.797328 2.679007
v -0.171429 12.797328 2.679007
v 0.342857 12.979319 2.770336
v -0.342857 12.979319 2.770336
v 0.342857 13.282635 2.831223
v -0.342857 13.282635 2.831223
v 0.000000 13.130977 2.557234
v 0.342857 13.252303 2.587677
v -0.342857 13.252303 2.587677
v 0.342857 13.009650 2.496347
v -0.342857 13.009650 2.496347
v 0.171429 12.857992 2.465904
v -0.171429 12.857992 2.465904
v 0.000000 12.827660 2.465904
v 0.628571 17.013430 3.044326
v -0.628571 17.013430 3.044326
v 0.685714 16.770775 3.013883
v -0.685714 16.770775 3.013883
v 1.228571 17.832384 2.952996
v -1.228571 17.832384 2.952996
v 1.000000 17.802052 3.013883
v -1.000000 17.802052 3.013883
v 1.542857 17.711058 3.013883
v -1.542857 17.711058 3.013883
v 2.057143 17.529068 2.709450
v -2.057143 17.529068 2.709450
v 2.142857 17.286413 2.679007
v -2.142857 17.286413 2.679007
v 2.114286 16.922434 2.648564
v -2.114286 16.922434 2.648564
v 1.742857 16.558455 2.800780
v -1.742857 16.558455 2.800780
v 1.371429 16.406796 2.892110
v -1.371429 16.406796 2.892110
v 0.828571 16.588785 3.044326
v -0.828571 16.588785 3.044326
v 0.657143 17.316746 3.044326
v -0.657143 17.316746 3.044326
v 0.771429 17.620062 3.044326
v -0.771429 17.620062 3.044326
v 0.857143 17.559399 2.952996
v -0.857143 17.559399 2.952996
v 0.714286 17.316746 2.952996
v -0.714286 17.316746 2.952996
v 0.885714 16.649448 2.952996
v -0.885714 16.649448 2.952996
v 1.371429 16.497791 2.831223
v -1.371429 16.497791 2.831223
v 1.685714 16.619118 2.739893
v -1.685714 16.619118 2.739893
v 2.000000 16.983097 2.618120
v -2.000000 16.983097 2.618120
v 2.028571 17.256083 2.618120
v -2.028571 17.256083 2.618120
v 1.942857 17.468403 2.648564
v -1.942857 17.468403 2.648564
v 1.514286 17.680725 2.922553
v -1.514286 17.680725 2.922553
v 1.028571 17.711058 2.983439
v -1.028571 17.711058 2.983439
v 1.228571 17.741388 2.922553
v -1.228571 17.741388 2.922553
v 0.742857 16.831440 2.922553
v -0.742857 16.831440 2.922553
v 0.714286 17.043760 2.922553
v -0.714286 17.043760 2.922553
v 0.400000 17.953711 2.374574
v -0.400000 17.953711 2.374574
v 0.714286 18.742334 2.405018
v -0.714286 18.742334 2.405018
v 1.228571 18.833328 2.313688
v -1.228571 18.833328 2.313688
v 1.771429 18.317690 2.161472
v -1.771429 18.317690 2.161472
v 2.485714 17.923378 1.917925
v -2.485714 17.923378 1.917925
v 2.914286 17.741388 1.796152
v -2.914286 17.741388 1.796152
v 2.828572 16.801107 1.461277
v -2.828572 16.801107 1.461277
v 2.200000 16.164143 1.613493
v -2.200000 16.164143 1.613493
v 1.600000 15.800162 1.826596
v -1.600000 15.800162 1.826596
v 0.000000 19.652283 1.126401
v 0.000000 19.985931 -0.304432
v 0.000000 15.405851 -2.618120
v 0.000000 14.374575 0.730638
v 0.000000 12.372685 1.796152
v 0.000000 13.039982 1.339503
v 0.000000 13.949931 1.248174
v 0.000000 14.283580 1.095957
v 3.114286 17.074093 0.213103
v -3.114286 17.074093 0.213103
v 3.142857 17.407742 -0.182660
v -3.142857 17.407742 -0.182660
v 2.828572 17.195419 -1.704823
v -2.828572 17.195419 -1.704823
v 1.685714 17.862717 -2.739893
v -1.685714 17.862717 -2.739893
v 2.685714 15.982153 0.273989
v -2.685714 15.982153 0.273989
v 2.171429 15.678836 -0.639308
v -2.171429 15.678836 -0.639308
v 2.342857 16.133812 -1.674379
v -2.342857 16.133812 -1.674379
v 1.228571 16.376465 -2.587677
v -1.228571 16.376465 -2.587677
v 0.857143 14.799218 1.583049
v -0.857143 14.799218 1.583049
v 0.657143 14.556564 1.004627
v -0.657143 14.556564 1.004627
v 1.057143 13.403961 1.491720
v -1.057143 13.403961 1.491720
v 0.914286 14.222917 1.522163
v -0.914286 14.222917 1.522163
v 1.200000 12.615338 1.552606
v -1.200000 12.615338 1.552606
v 0.514286 13.221972 1.430833
v -0.514286 13.221972 1.430833
v 0.457143 14.071259 1.400390
v -0.457143 14.071259 1.400390
v 0.600000 12.494012 1.704822
v -0.600000 12.494012 1.704822
v 0.800000 15.072203 1.674379
v -0.800000 15.072203 1.674379
v 0.771429 15.284524 1.826596
v -0.771429 15.284524 1.826596
v 0.742857 15.496846 1.948369
v -0.742857 15.496846 1.948369
v 0.771429 14.647560 0.639308
v -0.771429 14.647560 0.639308
v 1.085714 14.950876 -1.035071
v -1.085714 14.950876 -1.035071
v 1.257143 15.587841 -2.100585
v -1.257143 15.587841 -2.100585
v 1.657143 19.530956 -1.491720
v -1.657143 19.530956 -1.491720
v 1.657143 19.773609 -0.273989
v -1.657143 19.773609 -0.273989
v 1.657143 19.470293 0.913298
v -1.657143 19.470293 0.913298
v 1.685714 18.196363 1.674379
v -1.685714 18.196363 1.674379
v 2.657143 17.741388 1.309060
v -2.657143 17.741388 1.309060
v 2.314286 17.923378 1.095958
v -2.314286 17.923378 1.095958
v 2.342857 18.893991 0.213103
v -2.342857 18.893991 0.213103
v 2.914286 18.348022 0.487092
v -2.914286 18.348022 0.487092
v 2.914286 18.560345 -0.456649
v -2.914286 18.560345 -0.456649
v 2.342857 19.075981 -0.761081
v -2.342857 19.075981 -0.761081
v 2.342857 18.802998 -1.735266
v -2.342857 18.802998 -1.735266
v 2.914286 18.257027 -1.400390
v -2.914286 18.257027 -1.400390
v 2.257143 17.438072 -2.283245
v -2.257143 17.438072 -2.283245
v 1.771429 16.255138 -2.131028
v -1.771429 16.255138 -2.131028
v 3.000000 17.438072 -0.791525
v -3.000000 17.438072 -0.791525
v 1.485714 15.496846 0.578422
v -1.485714 15.496846 0.578422
v 1.571429 15.405851 -0.821968
v -1.571429 15.405851 -0.821968
v 3.257143 17.741388 -0.913298
v -3.257143 17.741388 -0.913298
v 2.828572 15.618173 -0.487092
v -2.828572 15.618173 -0.487092
v 3.800000 15.769831 -1.278617
v -3.800000 15.769831 -1.278617
v 4.685714 16.376465 -1.674379
v -4.685714 16.376465 -1.674379
v 4.942857 17.407742 -1.643936
v -4.942857 17.407742 -1.643936
v 4.514286 18.135700 -1.643936
v -4.514286 18.135700 -1.643936
v 3.742857 18.014374 -1.217730
v -3.742857 18.014374 -1.217730
v 3.714286 17.771721 -1.126400
v -3.714286 17.771721 -1.126400
v 4.342857 17.862717 -1.522163
v -4.342857 17.862717 -1.522163
v 4.628572 17.286415 -1.583050
v -4.628572 17.286415 -1.583050
v 4.428571 16.467459 -1.583050
v -4.428571 16.467459 -1.583050
v 3.771429 16.012484 -1.187287
v -3.771429 16.012484 -1.187287
v 3.028571 15.891158 -0.517535
v -3.028571 15.891158 -0.517535
v 3.371428 17.559399 -0.852411
v -3.371428 17.559399 -0.852411
v 3.457143 17.347076 -1.126401
v -3.457143 17.347076 -1.126401
v 3.228571 16.073147 -0.821968
v -3.228571 16.073147 -0.821968
v 3.800000 16.164143 -1.430833
v -3.800000 16.164143 -1.430833
v 4.342857 16.528122 -1.735266
v -4.342857 16.528122 -1.735266
v 4.514286 17.134756 -1.735266
v -4.514286 17.134756 -1.735266
v 4.285714 17.559399 -1.704822
v -4.285714 17.559399 -1.704822
v 3.742857 17.498735 -1.400390
v -3.742857 17.498735 -1.400390
v 3.085714 17.286413 -0.821968
v -3.085714 17.286413 -0.821968
v 3.057143 16.831440 -1.065514
v -3.057143 16.831440 -1.065514
v 2.771429 16.528122 -1.065514
v -2.771429 16.528122 -1.065514
v 3.000000 16.497791 -1.065514
v -3.000000 16.497791 -1.065514
v 3.085714 16.224806 -1.065514
v -3.085714 16.224806 -1.065514
v 2.971429 16.103479 -1.065514
v -2.971429 16.103479 -1.065514
v 2.657143 16.164143 -0.273989
v -2.657143 16.164143 -0.273989
v 2.628572 16.073147 -0.669752
v -2.628572 16.073147 -0.669752
v 2.628572 16.315802 -0.730638
v -2.628572 16.315802 -0.730638
v 2.914286 16.952766 -0.821968
v -2.914286 16.952766 -0.821968
v 3.257143 17.104424 -1.035071
v -3.257143 17.104424 -1.035071
v 3.257143 17.074093 -1.248174
v -3.257143 17.074093 -1.248174
v 2.971429 16.103479 -1.248174
v -2.971429 16.103479 -1.248174
v 3.114286 16.224806 -1.248174
v -3.114286 16.224806 -1.248174
v 3.028571 16.467459 -1.248174
v -3.028571 16.467459 -1.248174
v 2.800000 16.528122 -1.248174
v -2.800000 16.528122 -1.248174
v 3.085714 16.831440 -1.248174
v -3.085714 16.831440 -1.248174
v 3.800000 17.438072 -1.613493
v -3.800000 17.438072 -1.613493
v 4.342857 17.498735 -1.887482
v -4.342857 17.498735 -1.887482
v 4.600000 17.104424 -1.917925
v -4.600000 17.104424 -1.917925
v 4.428571 16.497791 -1.887482
v -4.428571 16.497791 -1.887482
v 3.828572 16.164143 -1.643936
v -3.828572 16.164143 -1.643936
v 3.228571 16.103479 -1.035071
v -3.228571 16.103479 -1.035071
v 3.485714 17.286413 -1.339503
v -3.485714 17.286413 -1.339503
v 3.257143 16.588785 -1.278617
v -3.257143 16.588785 -1.278617
v 3.428571 16.406796 -1.309060
v -3.428571 16.406796 -1.309060
v 3.657143 16.649448 -1.430833
v -3.657143 16.649448 -1.430833
v 3.514286 16.831440 -1.369947
v -3.514286 16.831440 -1.369947
v 3.714286 17.074093 -1.461277
v -3.714286 17.074093 -1.461277
v 3.857143 16.892103 -1.491720
v -3.857143 16.892103 -1.491720
v 4.057143 16.983097 -1.522163
v -4.057143 16.983097 -1.522163
v 3.971429 17.225750 -1.522163
v -3.971429 17.225750 -1.522163
v 3.742857 17.862717 -1.887482
v -3.742857 17.862717 -1.887482
v 4.571429 17.984043 -2.131028
v -4.571429 17.984043 -2.131028
v 5.000000 17.316746 -1.948369
v -5.000000 17.316746 -1.948369
v 4.800000 16.376465 -2.070142
v -4.800000 16.376465 -2.070142
v 3.800000 15.830495 -1.917925
v -3.800000 15.830495 -1.917925
v 2.885714 15.678836 -1.278617
v -2.885714 15.678836 -1.278617
v 3.142857 17.650394 -1.491720
v -3.142857 17.650394 -1.491720
v 0.000000 -0.014069 -5.000000
v 0.000001 14.708896 -0.000001
v 0.915475 -0.014069 -4.903926
v 1.795769 -0.014069 -4.619397
v 2.607052 -0.014069 -4.157347
v 3.318148 -0.014069 -3.535534
v 3.901730 -0.014069 -2.777851
v 4.335370 -0.014069 -1.913417
v 4.602404 -0.014069 -0.975452
v 4.692570 -0.014069 -0.000000
v 4.602404 -0.014069 0.975451
v 4.335370 -0.014069 1.913416
v 3.901730 -0.014069 2.777851
v 3.318148 -0.014069 3.535534
v 2.607052 -0.014069 4.157349
v 1.795768 -0.014069 4.619398
v 0.915474 -0.014069 4.903927
v -0.000002 -0.014069 5.000000
v -0.915477 -0.014069 4.903926
v -1.795771 -0.014069 4.619397
v -2.607054 -0.014069 4.157347
v -3.318151 -0.014069 3.535532
v -3.901732 -0.014069 2.777848
v -4.335371 -0.014069 1.913413
v -4.602405 -0.014069 0.975447
v -4.692570 -0.014069 -0.000005
v -4.602403 -0.014069 -0.975457
v -4.335368 -0.014069 -1.913422
v -3.901726 -0.014069 -2.777856
v -3.318144 -0.014069 -3.535538
v -2.607047 -0.014069 -4.157351
v -1.795763 -0.014069 -4.619400
v -0.915468 -0.014069 -4.903927
vt 0.495584 0.827309
vt 0.484712 0.827301
vt 0.480097 0.814337
vt 0.500911 0.813968
vt 0.453555 0.819953
vt 0.463137 0.830174
vt 0.462345 0.839520
vt 0.451972 0.837651
vt 0.202973 0.641542
vt 0.201677 0.624752
vt 0.215186 0.618251
vt 0.216306 0.639493
vt 0.439841 0.813968
vt 0.438364 0.836343
vt 0.895230 0.042551
vt 0.895219 0.023131
vt 0.908485 0.025559
vt 0.908272 0.051070
vt 0.901903 0.142899
vt 0.888637 0.145327
vt 0.888647 0.125906
vt 0.901690 0.117387
vt 0.476698 0.836128
vt 0.465202 0.829290
vt 0.264233 0.837072
vt 0.275558 0.844190
vt 0.274996 0.855153
vt 0.264307 0.856327
vt 0.476493 0.847125
vt 0.465242 0.850154
vt 0.278944 0.824093
vt 0.283075 0.837369
vt 0.895198 0.003709
vt 0.908439 0.000000
vt 0.901857 0.168458
vt 0.888616 0.164749
vt 0.450123 0.868662
vt 0.450547 0.886378
vt 0.439951 0.885098
vt 0.438417 0.862695
vt 0.303660 0.815049
vt 0.299605 0.824693
vt 0.277682 0.813968
vt 0.484272 0.854563
vt 0.479870 0.864647
vt 0.293865 0.837873
vt 0.496000 0.855186
vt 0.500540 0.864739
vt 0.313874 0.839540
vt 0.302378 0.845906
vt 0.450082 0.906450
vt 0.438364 0.911422
vt 0.350956 0.863461
vt 0.362135 0.868542
vt 0.361431 0.888950
vt 0.350992 0.890243
vt 0.402709 0.861271
vt 0.402533 0.841895
vt 0.415629 0.839540
vt 0.415823 0.865041
vt 0.216107 0.691767
vt 0.203012 0.689412
vt 0.203187 0.670036
vt 0.216302 0.666266
vt 0.503636 0.847259
vt 0.515362 0.850017
vt 0.313870 0.859024
vt 0.302215 0.855978
vt 0.504219 0.835362
vt 0.515395 0.828923
vt 0.299237 0.871774
vt 0.294299 0.863689
vt 0.402870 0.822427
vt 0.415827 0.813968
vt 0.216306 0.717339
vt 0.203349 0.708880
vt 0.201644 0.661988
vt 0.215144 0.666266
vt 0.453513 0.857742
vt 0.439788 0.862695
vt 0.463115 0.851057
vt 0.204804 0.843328
vt 0.204138 0.855021
vt 0.202048 0.855814
vt 0.202715 0.843141
vt 0.465177 0.851923
vt 0.464409 0.839391
vt 0.204362 0.739206
vt 0.204804 0.750416
vt 0.201914 0.751028
vt 0.202217 0.738633
vt 0.201914 0.773561
vt 0.204804 0.774172
vt 0.204362 0.785382
vt 0.202217 0.785956
vt 0.204802 0.760693
vt 0.202090 0.762294
vt 0.204802 0.763896
vt 0.402533 0.887038
vt 0.402768 0.875510
vt 0.405890 0.875243
vt 0.405599 0.887913
vt 0.483511 0.874399
vt 0.486688 0.874791
vt 0.487024 0.886466
vt 0.483932 0.887277
vt 0.402556 0.866155
vt 0.405624 0.865041
vt 0.483952 0.864739
vt 0.487042 0.865888
vt 0.204770 0.787574
vt 0.204804 0.797878
vt 0.201989 0.797255
vt 0.202110 0.785956
vt 0.201989 0.821977
vt 0.204804 0.821354
vt 0.204770 0.831658
vt 0.202110 0.833276
vt 0.204126 0.809054
vt 0.202012 0.809616
vt 0.204126 0.810178
vt 0.204157 0.834443
vt 0.202068 0.833276
vt 0.465202 0.829051
vt 0.513003 0.351775
vt 0.528246 0.359803
vt 0.519551 0.367791
vt 0.529791 0.346109
vt 0.537596 0.337518
vt 0.542435 0.351955
vt 0.528241 0.346392
vt 0.549626 0.337482
vt 0.519391 0.337871
vt 0.556931 0.346317
vt 0.507336 0.337482
vt 0.556911 0.358426
vt 0.497960 0.346538
vt 0.547581 0.367459
vt 0.497494 0.358828
vt 0.536212 0.367816
vt 0.506816 0.368471
vt 0.528246 0.358659
vt 0.244552 0.804038
vt 0.234195 0.802059
vt 0.233254 0.780951
vt 0.241597 0.780925
vt 0.234066 0.759836
vt 0.244410 0.757794
vt 0.248433 0.823128
vt 0.234097 0.811108
vt 0.233911 0.750789
vt 0.248174 0.738681
vt 0.086300 0.520047
vt 0.073832 0.534660
vt 0.066828 0.524286
vt 0.079479 0.515030
vt 0.011846 0.544440
vt 0.011519 0.557502
vt 0.000161 0.551622
vt 0.002504 0.543245
vt 0.092150 0.544784
vt 0.076609 0.549772
vt 0.834798 0.476833
vt 0.825908 0.464124
vt 0.839412 0.459200
vt 0.854215 0.480172
vt 0.099151 0.577543
vt 0.082954 0.582843
vt 0.809653 0.434617
vt 0.825913 0.428481
vt 0.528905 0.177598
vt 0.529005 0.207975
vt 0.510898 0.200793
vt 0.497494 0.163797
vt 0.522825 0.098947
vt 0.542102 0.096144
vt 0.534985 0.125676
vt 0.501236 0.131845
vt 0.128243 0.607436
vt 0.155496 0.611386
vt 0.155472 0.624506
vt 0.123940 0.622292
vt 0.531260 0.071594
vt 0.543211 0.070969
vt 0.189451 0.624342
vt 0.175626 0.637385
vt 0.149280 0.903961
vt 0.162667 0.887315
vt 0.179637 0.902449
vt 0.165071 0.910133
vt 0.201601 0.658882
vt 0.183651 0.658161
vt 0.126563 0.905741
vt 0.123726 0.897635
vt 0.185773 0.672274
vt 0.177025 0.666159
vt 0.015744 0.725278
vt 0.018994 0.733408
vt 0.000000 0.732781
vt 0.009541 0.721983
vt 0.704597 0.432528
vt 0.721399 0.456352
vt 0.717684 0.471832
vt 0.698393 0.444712
vt 0.630358 0.365143
vt 0.634072 0.380623
vt 0.617271 0.404448
vt 0.611067 0.392264
vt 0.163632 0.696639
vt 0.149181 0.723490
vt 0.140160 0.711053
vt 0.151702 0.693856
vt 0.879907 0.380120
vt 0.864182 0.391805
vt 0.864237 0.368134
vt 0.878804 0.365246
vt 0.127527 0.726147
vt 0.125840 0.713138
vt 0.078189 0.730605
vt 0.090872 0.739583
vt 0.074039 0.751034
vt 0.066850 0.737925
vt 0.369241 0.863462
vt 0.369312 0.832845
vt 0.381174 0.825882
vt 0.381112 0.851673
vt 0.081897 0.703531
vt 0.091908 0.708136
vt 0.368874 0.823696
vt 0.379043 0.813968
vt 0.090955 0.689434
vt 0.096650 0.697811
vt 0.114317 0.689290
vt 0.127291 0.691979
vt 0.105722 0.694798
vt 0.068644 0.713477
vt 0.075830 0.703398
vt 0.137243 0.689353
vt 0.060268 0.717569
vt 0.148056 0.679965
vt 0.049068 0.731477
vt 0.047256 0.716915
vt 0.166938 0.664312
vt 0.025817 0.716041
vt 0.168447 0.653006
vt 0.018162 0.708094
vt 0.161700 0.640493
vt 0.005181 0.699863
vt 0.015081 0.694237
vt 0.139850 0.631447
vt 0.010686 0.677578
vt 0.024388 0.673770
vt 0.123125 0.631251
vt 0.030470 0.656554
vt 0.035154 0.663498
vt 0.105382 0.648580
vt 0.085478 0.629331
vt 0.056154 0.640080
vt 0.057731 0.666047
vt 0.102688 0.656014
vt 0.079888 0.651454
vt 0.064201 0.670122
vt 0.105040 0.677680
vt 0.075716 0.688429
vt 0.086166 0.671753
vt 0.101963 0.665938
vt 0.070807 0.677359
vt 0.225749 0.789016
vt 0.226791 0.780970
vt 0.225699 0.772931
vt 0.054408 0.539784
vt 0.046324 0.536276
vt 0.057879 0.525425
vt 0.019391 0.539533
vt 0.031662 0.541651
vt 0.026917 0.549861
vt 0.058101 0.554559
vt 0.032443 0.563965
vt 0.066283 0.589074
vt 0.060421 0.557991
vt 0.032930 0.568068
vt 0.047956 0.595792
vt 0.033470 0.600982
vt 0.017961 0.571269
vt 0.074438 0.607470
vt 0.062603 0.606456
vt 0.057120 0.592433
vt 0.054278 0.614860
vt 0.047027 0.563971
vt 0.043166 0.553611
vt 0.867121 0.359013
vt 0.873030 0.360514
vt 0.869560 0.364628
vt 0.864182 0.365246
vt 0.422024 0.881734
vt 0.419681 0.876514
vt 0.425758 0.876348
vt 0.427119 0.883560
vt 0.868285 0.348551
vt 0.873664 0.347934
vt 0.421717 0.864132
vt 0.426812 0.865957
vt 0.857521 0.360123
vt 0.852542 0.355112
vt 0.852484 0.346064
vt 0.857451 0.347054
vt 0.495055 0.878798
vt 0.495113 0.869751
vt 0.500092 0.864739
vt 0.500022 0.877808
vt 0.799270 0.355648
vt 0.793160 0.355474
vt 0.794184 0.346561
vt 0.799272 0.348623
vt 0.784652 0.346561
vt 0.785773 0.355739
vt 0.779668 0.355954
vt 0.779666 0.349041
vt 0.479654 0.876786
vt 0.479371 0.887846
vt 0.474231 0.888867
vt 0.474574 0.876802
vt 0.474157 0.864739
vt 0.479304 0.865729
vt 0.579140 0.355551
vt 0.573092 0.367286
vt 0.570013 0.364623
vt 0.575053 0.354844
vt 0.570042 0.345103
vt 0.573127 0.343863
vt 0.789465 0.357983
vt 0.790665 0.349900
vt 0.788150 0.349738
vt 0.789465 0.358181
vt 0.848429 0.354119
vt 0.848380 0.348088
vt 0.490951 0.876775
vt 0.491000 0.870744
vt 0.876843 0.351162
vt 0.876849 0.360643
vt 0.415827 0.876082
vt 0.417842 0.866831
vt 0.670174 0.345365
vt 0.665154 0.345364
vt 0.665297 0.340227
vt 0.669063 0.339912
vt 0.670317 0.345050
vt 0.670174 0.339913
vt 0.675194 0.339912
vt 0.674083 0.345365
vt 0.563930 0.354164
vt 0.566926 0.367816
vt 0.557927 0.366382
vt 0.556931 0.360530
vt 0.557962 0.342958
vt 0.566966 0.340488
vt 0.556948 0.348818
vt 0.071027 0.629059
vt 0.082589 0.623751
vt 0.058763 0.632484
vt 0.081609 0.613429
vt 0.086582 0.609345
vt 0.048094 0.623453
vt 0.052286 0.624178
vt 0.085256 0.600197
vt 0.043102 0.615649
vt 0.023259 0.815490
vt 0.031262 0.830943
vt 0.013958 0.839592
vt 0.007985 0.823082
vt 0.802685 0.418568
vt 0.821162 0.412060
vt 0.034245 0.838918
vt 0.017101 0.848311
vt 0.798997 0.410090
vt 0.817872 0.404332
vt 0.036439 0.847418
vt 0.011294 0.870358
vt 0.779666 0.398229
vt 0.813653 0.396851
vt 0.043252 0.552461
vt 0.055434 0.552301
vt 0.373087 0.877598
vt 0.371018 0.877541
vt 0.371026 0.863461
vt 0.372164 0.865504
vt 0.052361 0.542675
vt 0.033441 0.560363
vt 0.030368 0.550737
vt 0.045412 0.538727
vt 0.034416 0.542758
vt 0.038861 0.537917
vt 0.039563 0.539801
vt 0.799272 0.351929
vt 0.799321 0.345897
vt 0.806415 0.345919
vt 0.806367 0.351951
vt 0.806378 0.357983
vt 0.799284 0.357961
vt 0.473395 0.864739
vt 0.474157 0.872078
vt 0.465202 0.870574
vt 0.466108 0.864742
vt 0.436047 0.870320
vt 0.427119 0.871803
vt 0.427698 0.864132
vt 0.434943 0.864138
vt 0.473456 0.882215
vt 0.465992 0.879067
vt 0.435121 0.878718
vt 0.427650 0.881828
vt 0.371498 0.889623
vt 0.381174 0.877822
vt 0.379585 0.889846
vt 0.380251 0.865728
vt 0.455082 0.874620
vt 0.465202 0.875272
vt 0.464206 0.881135
vt 0.451058 0.886119
vt 0.464187 0.869423
vt 0.451020 0.862695
vt 0.459167 0.886785
vt 0.459130 0.863362
vt 0.105484 0.657203
vt 0.106240 0.665513
vt 0.061498 0.673326
vt 0.065920 0.680293
vt 0.110667 0.674595
vt 0.068514 0.690046
vt 0.117842 0.682669
vt 0.068358 0.700808
vt 0.107741 0.649976
vt 0.054592 0.669459
vt 0.505825 0.864739
vt 0.505791 0.887567
vt 0.500565 0.886223
vt 0.500092 0.866380
vt 0.002292 0.847758
vt 0.007527 0.846447
vt 0.007420 0.869274
vt 0.001698 0.867598
vt 0.138462 0.637452
vt 0.124139 0.637423
vt 0.001728 0.834427
vt 0.007387 0.830936
vt 0.155679 0.643867
vt 0.020056 0.693580
vt 0.026665 0.678433
vt 0.160589 0.654936
vt 0.023133 0.705322
vt 0.160429 0.663583
vt 0.028472 0.711953
vt 0.143856 0.676321
vt 0.362135 0.863461
vt 0.367971 0.867771
vt 0.363396 0.890451
vt 0.362180 0.884072
vt 0.135617 0.683575
vt 0.056809 0.712463
vt 0.044888 0.712599
vt 0.127498 0.685529
vt 0.063352 0.709042
vt 0.120545 0.679466
vt 0.127580 0.682263
vt 0.065563 0.699620
vt 0.061601 0.706448
vt 0.134782 0.680645
vt 0.055974 0.709533
vt 0.597924 0.347195
vt 0.603510 0.337491
vt 0.604625 0.337917
vt 0.601154 0.347353
vt 0.046109 0.711009
vt 0.601190 0.367816
vt 0.604619 0.364821
vt 0.490305 0.884948
vt 0.487142 0.885617
vt 0.487091 0.864739
vt 0.490951 0.867151
vt 0.156499 0.662834
vt 0.157009 0.655130
vt 0.031872 0.708517
vt 0.026885 0.702828
vt 0.152934 0.646990
vt 0.024642 0.694016
vt 0.137768 0.639800
vt 0.029636 0.679436
vt 0.125629 0.640040
vt 0.036167 0.669669
vt 0.037657 0.672286
vt 0.110931 0.650876
vt 0.054116 0.671702
vt 0.108674 0.658102
vt 0.678658 0.345365
vt 0.675201 0.344119
vt 0.675194 0.338954
vt 0.678651 0.340200
vt 0.113155 0.673611
vt 0.480511 0.882441
vt 0.483406 0.882808
vt 0.483474 0.892165
vt 0.480670 0.889663
vt 0.110215 0.665030
vt 0.479654 0.873468
vt 0.483511 0.873011
vt 0.479827 0.866361
vt 0.482754 0.864739
vt 0.579927 0.353689
vt 0.579189 0.345644
vt 0.597174 0.339667
vt 0.597924 0.353744
vt 0.597088 0.367816
vt 0.579140 0.361729
vt 0.350982 0.856846
vt 0.350956 0.829359
vt 0.780341 0.363855
vt 0.798934 0.358181
vt 0.798274 0.389296
vt 0.779666 0.391805
vt 0.835639 0.391805
vt 0.815005 0.386331
vt 0.814970 0.368403
vt 0.832614 0.373484
vt 0.657456 0.377303
vt 0.647616 0.362317
vt 0.661830 0.346389
vt 0.669389 0.363349
vt 0.798934 0.391805
vt 0.798943 0.366828
vt 0.814843 0.358117
vt 0.814970 0.379392
vt 0.645647 0.392980
vt 0.718530 0.422053
vt 0.732974 0.443996
vt 0.631204 0.414923
vt 0.692340 0.417391
vt 0.709385 0.409463
vt 0.622059 0.427512
vt 0.605013 0.419584
vt 0.944999 0.325267
vt 0.908192 0.340370
vt 0.902757 0.331753
vt 0.930220 0.315381
vt 0.162048 0.877462
vt 0.129781 0.881092
vt 0.531792 0.258911
vt 0.524267 0.232725
vt 0.540364 0.230561
vt 0.541453 0.252957
vt 0.558373 0.076793
vt 0.556582 0.047230
vt 0.564607 0.055255
vt 0.536600 0.208864
vt 0.549697 0.097033
vt 0.568933 0.859243
vt 0.580382 0.859823
vt 0.587046 0.883085
vt 0.570585 0.876323
vt 0.592227 0.837876
vt 0.574189 0.844873
vt 0.538814 0.855877
vt 0.542436 0.874845
vt 0.546490 0.839464
vt 0.515395 0.855556
vt 0.517316 0.876207
vt 0.522046 0.834930
vt 0.256584 0.780879
vt 0.259405 0.801982
vt 0.259276 0.759759
vt 0.264233 0.823079
vt 0.263974 0.738633
vt 0.008617 0.758684
vt 0.008123 0.752769
vt 0.024458 0.751034
vt 0.035304 0.775398
vt 0.871011 0.475239
vt 0.857938 0.485331
vt 0.862203 0.450062
vt 0.012091 0.783950
vt 0.043639 0.801711
vt 0.850231 0.425189
vt 0.546049 0.894627
vt 0.573334 0.893363
vt 0.554383 0.821900
vt 0.580542 0.830464
vt 0.519446 0.896523
vt 0.528906 0.813968
vt 0.592229 0.894183
vt 0.855788 0.425594
vt 0.840630 0.408449
vt 0.861282 0.406930
vt 0.048050 0.820389
vt 0.048367 0.830129
vt 0.046016 0.838510
vt 0.826728 0.396696
vt 0.834186 0.401183
vt 0.044607 0.846551
vt 0.820190 0.391805
vt 0.536751 0.178517
vt 0.542832 0.126595
vt 0.725307 0.163816
vt 0.719382 0.209845
vt 0.691856 0.212020
vt 0.689457 0.165207
vt 0.695911 0.125062
vt 0.723345 0.124864
vt 0.689457 0.170084
vt 0.666993 0.211989
vt 0.634138 0.202068
vt 0.650110 0.165476
vt 0.643025 0.126183
vt 0.677284 0.124122
vt 0.581246 0.184740
vt 0.581980 0.157497
vt 0.587560 0.130821
vt 0.569944 0.179367
vt 0.570211 0.156118
vt 0.575323 0.133437
vt 0.064507 0.807788
vt 0.076143 0.805750
vt 0.871126 0.399989
vt 0.895490 0.345856
vt 0.855609 0.327549
vt 0.874924 0.302175
vt 0.197105 0.845463
vt 0.178238 0.885342
vt 0.164777 0.836329
vt 0.788583 0.167178
vt 0.768107 0.227806
vt 0.773545 0.111203
vt 0.497494 0.427044
vt 0.504167 0.368715
vt 0.543659 0.368594
vt 0.545055 0.426898
vt 0.544017 0.485210
vt 0.504525 0.485331
vt 0.583611 0.368471
vt 0.605013 0.426714
vt 0.583969 0.485088
vt 0.827975 0.176630
vt 0.819360 0.237358
vt 0.824705 0.122732
vt 0.726620 0.402880
vt 0.740510 0.405041
vt 0.639293 0.434095
vt 0.653183 0.431934
vt 0.737388 0.375765
vt 0.758980 0.381241
vt 0.650062 0.461210
vt 0.671654 0.455734
vt 0.757433 0.351644
vt 0.779648 0.356370
vt 0.670106 0.485331
vt 0.692321 0.480605
vt 0.891712 0.225924
vt 0.887849 0.249621
vt 0.857086 0.238405
vt 0.860764 0.213332
vt 0.139286 0.774904
vt 0.121974 0.802699
vt 0.105426 0.787165
vt 0.122019 0.758161
vt 0.741119 0.271904
vt 0.751798 0.249321
vt 0.794994 0.258199
vt 0.775055 0.278770
vt 0.169536 0.751034
vt 0.175169 0.773194
vt 0.802551 0.096141
vt 0.759079 0.093192
vt 0.883505 0.194317
vt 0.920206 0.212547
vt 0.076143 0.795152
vt 0.093746 0.758127
vt 0.945120 0.243963
vt 0.913500 0.250011
vt 0.103320 0.819721
vt 0.076173 0.835466
vt 0.939286 0.291606
vt 0.917098 0.291968
vt 0.126937 0.855425
vt 0.110695 0.869824
vt 0.745492 0.433651
vt 0.658165 0.403324
vt 0.257718 0.671520
vt 0.264064 0.733418
vt 0.222409 0.738633
vt 0.216306 0.680362
vt 0.222575 0.625418
vt 0.264233 0.618251
vt 0.242166 0.823128
vt 0.264233 0.840965
vt 0.262852 0.858531
vt 0.242209 0.871224
vt 0.436919 0.829097
vt 0.438364 0.847625
vt 0.415827 0.864132
vt 0.415831 0.813968
vt 0.765359 0.480526
vt 0.779666 0.485331
vt 0.678033 0.356449
vt 0.692340 0.351644
vt 0.829977 0.353650
vt 0.833630 0.368403
vt 0.814970 0.368402
vt 0.815494 0.347960
vt 0.918140 0.303577
vt 0.132562 0.864724
vt 0.871229 0.286056
vt 0.908231 0.273866
vt 0.121081 0.834519
vt 0.157493 0.821164
vt 0.856291 0.271965
vt 0.160815 0.801023
vt 0.827975 0.258451
vt 0.624231 0.218115
vt 0.578553 0.209729
vt 0.637094 0.108281
vt 0.590715 0.105886
vt 0.582600 0.252715
vt 0.615230 0.238317
vt 0.604585 0.064998
vt 0.633004 0.086546
vt 0.541061 0.180033
vt 0.546367 0.181667
vt 0.552915 0.125751
vt 0.547375 0.126115
vt 0.007523 0.830936
vt 0.000440 0.799840
vt 0.007527 0.797796
vt 0.882195 0.451180
vt 0.888317 0.454828
vt 0.882197 0.484162
vt 0.706810 0.253121
vt 0.713119 0.230989
vt 0.718833 0.108457
vt 0.714367 0.091063
vt 0.750243 0.076248
vt 0.664500 0.229917
vt 0.647466 0.248165
vt 0.679001 0.106103
vt 0.666643 0.084412
vt 0.887241 0.391805
vt 0.903588 0.401908
vt 0.902072 0.441875
vt 0.887276 0.442103
vt 0.830045 0.089618
vt 0.827975 0.068728
vt 0.834852 0.068610
vt 0.836030 0.084070
vt 0.254804 0.587783
vt 0.261319 0.591374
vt 0.252164 0.605293
vt 0.249023 0.597962
vt 0.846182 0.106665
vt 0.841953 0.117129
vt 0.233514 0.608091
vt 0.232856 0.618251
vt 0.867821 0.105686
vt 0.870101 0.117387
vt 0.216993 0.594621
vt 0.209358 0.602508
vt 0.887660 0.085899
vt 0.895134 0.092512
vt 0.211726 0.567174
vt 0.203100 0.567748
vt 0.887372 0.056286
vt 0.895198 0.053597
vt 0.223023 0.545706
vt 0.219366 0.538464
vt 0.874826 0.028047
vt 0.878985 0.017331
vt 0.239769 0.534126
vt 0.241942 0.523195
vt 0.884685 0.061270
vt 0.874532 0.038984
vt 0.871890 0.137441
vt 0.876473 0.165562
vt 0.870424 0.159950
vt 0.867721 0.125744
vt 0.204918 0.744537
vt 0.210805 0.744003
vt 0.213556 0.765582
vt 0.207507 0.771195
vt 0.873722 0.187142
vt 0.867834 0.186608
vt 0.879907 0.363921
vt 0.884784 0.369455
vt 0.884747 0.390230
vt 0.879916 0.391805
vt 0.877454 0.484034
vt 0.877403 0.463086
vt 0.882195 0.457301
vt 0.882174 0.485331
vt 0.854675 0.101012
vt 0.870865 0.100729
vt 0.219462 0.587829
vt 0.232295 0.597439
vt 0.845571 0.082043
vt 0.902011 0.075483
vt 0.903004 0.096977
vt 0.895198 0.102656
vt 0.895245 0.077075
vt 0.843657 0.069295
vt 0.514282 0.868219
vt 0.515395 0.879764
vt 0.505832 0.877573
vt 0.613537 0.254314
vt 0.600277 0.253773
vt 0.635054 0.070591
vt 0.622027 0.068053
vt 0.866574 0.000000
vt 0.863420 0.020344
vt 0.264233 0.515030
vt 0.255779 0.533275
vt 0.845028 0.311759
vt 0.195624 0.826440
vt 0.831582 0.055226
vt 0.837526 0.055371
vt 0.259637 0.575628
vt 0.264212 0.579080
vt 0.204804 0.805400
vt 0.208973 0.793704
vt 0.220813 0.796310
vt 0.217268 0.813757
vt 0.883730 0.134835
vt 0.880185 0.117387
vt 0.212473 0.736318
vt 0.208344 0.718244
vt 0.216302 0.732206
vt 0.848380 0.346064
vt 0.848378 0.354077
vt 0.835639 0.349965
vt 0.839778 0.346209
vt 0.201925 0.726127
vt 0.203301 0.733873
vt 0.845744 0.360705
vt 0.838014 0.359187
vt 0.836776 0.282269
vt 0.845941 0.282931
vt 0.836222 0.298563
vt 0.831388 0.287643
vt 0.194369 0.810573
vt 0.176126 0.803571
vt 0.182614 0.797179
vt 0.190973 0.798657
vt 0.844049 0.044663
vt 0.851113 0.048378
vt 0.846670 0.058701
vt 0.255825 0.560588
vt 0.260283 0.563161
vt 0.253233 0.571761
vt 0.251054 0.581539
vt 0.852227 0.275874
vt 0.166281 0.801501
vt 0.832927 0.305912
vt 0.201601 0.814413
vt 0.000000 0.758366
vt 0.001426 0.751034
vt 0.007527 0.754640
vt 0.005644 0.762869
vt 0.907990 0.113838
vt 0.901856 0.117387
vt 0.900498 0.110043
vt 0.906183 0.105591
vt 0.636110 0.345365
vt 0.637139 0.337989
vt 0.643017 0.337183
vt 0.643012 0.343700
vt 0.617188 0.335700
vt 0.623140 0.336177
vt 0.624157 0.344160
vt 0.617188 0.342779
vt 0.611116 0.345773
vt 0.611101 0.335700
vt 0.617173 0.336315
vt 0.617188 0.346389
vt 0.611086 0.345773
vt 0.605013 0.346389
vt 0.605028 0.336315
vt 0.643017 0.345365
vt 0.643036 0.337322
vt 0.649041 0.336354
vt 0.649052 0.344396
vt 0.655077 0.345365
vt 0.649072 0.344396
vt 0.649052 0.336354
vt 0.655088 0.337322
vt 0.630115 0.335700
vt 0.630104 0.345194
vt 0.624174 0.345365
vt 0.624157 0.336850
vt 0.630140 0.345290
vt 0.630115 0.335897
vt 0.636105 0.336966
vt 0.660811 0.339301
vt 0.664840 0.339344
vt 0.665154 0.345356
vt 0.660121 0.345365
vt 0.660121 0.339310
vt 0.659807 0.345321
vt 0.655778 0.345365
vt 0.655088 0.339301
vt 0.214698 0.789566
vt 0.225699 0.792778
vt 0.877615 0.141579
vt 0.888616 0.138367
vt 0.002385 0.771454
vt 0.007518 0.776823
vt 0.908185 0.091656
vt 0.001194 0.792938
vt 0.005463 0.797796
vt 0.906323 0.070664
vt 0.883155 0.356725
vt 0.889312 0.358381
vt 0.890981 0.369968
vt 0.873146 0.452669
vt 0.879363 0.451180
vt 0.871126 0.463371
vt 0.889940 0.390749
vt 0.872178 0.484321
vt 0.213086 0.738633
vt 0.218668 0.760647
vt 0.876003 0.192512
vt 0.881585 0.170497
vt 0.845191 0.123536
vt 0.853687 0.122640
vt 0.853185 0.135374
vt 0.845098 0.132542
vt 0.326648 0.830010
vt 0.326678 0.818166
vt 0.335114 0.819685
vt 0.334730 0.828216
vt 0.849855 0.146768
vt 0.842067 0.144608
vt 0.330048 0.839905
vt 0.337531 0.839170
vt 0.845851 0.156869
vt 0.838188 0.154916
vt 0.333737 0.849396
vt 0.341323 0.848442
vt 0.846236 0.164554
vt 0.837741 0.165450
vt 0.332979 0.856580
vt 0.341415 0.858100
vt 0.829252 0.163889
vt 0.827975 0.150146
vt 0.350956 0.846128
vt 0.350777 0.855934
vt 0.830527 0.139401
vt 0.348528 0.836520
vt 0.835205 0.130594
vt 0.344549 0.827432
vt 0.839993 0.117387
vt 0.340814 0.813968
vt 0.218151 0.778387
vt 0.222853 0.788633
vt 0.881067 0.152757
vt 0.885769 0.142511
vt 0.867721 0.146427
vt 0.858119 0.122940
vt 0.313895 0.835331
vt 0.320502 0.821042
vt 0.867696 0.171402
vt 0.313874 0.856798
vt 0.852309 0.185716
vt 0.328381 0.871732
vt 0.836629 0.183338
vt 0.344030 0.870952
vt 0.629302 0.297660
vt 0.607684 0.260714
vt 0.633233 0.265730
vt 0.650103 0.300096
vt 0.656854 0.064034
vt 0.630837 0.063012
vt 0.660408 0.032060
vt 0.681209 0.034496
vt 0.637373 0.329983
vt 0.649860 0.335494
vt 0.675729 0.002477
vt 0.689151 0.000000
vt 0.887195 0.418711
vt 0.883852 0.449905
vt 0.871136 0.450417
vt 0.877185 0.421795
vt 0.241475 0.881920
vt 0.228632 0.881643
vt 0.226068 0.849217
vt 0.236100 0.852251
vt 0.871126 0.396662
vt 0.226049 0.823128
vt 0.242166 0.828001
vt 0.205556 0.853857
vt 0.204804 0.823238
vt 0.217758 0.813757
vt 0.224758 0.843212
vt 0.394128 0.874020
vt 0.381174 0.864539
vt 0.381925 0.833919
vt 0.401127 0.844565
vt 0.204816 0.873809
vt 0.223384 0.868112
vt 0.381185 0.813968
vt 0.399754 0.819664
vt 0.762199 0.303835
vt 0.695200 0.301506
vt 0.689732 0.273238
vt 0.754964 0.284919
vt 0.699040 0.073630
vt 0.707457 0.038655
vt 0.774272 0.044938
vt 0.765102 0.067524
vt 0.765603 0.331344
vt 0.712049 0.336329
vt 0.727533 0.004308
vt 0.780349 0.015133
vt 0.742356 0.345856
vt 0.758485 0.000000
vt 0.864168 0.360670
vt 0.864181 0.391805
vt 0.852115 0.390771
vt 0.850172 0.371654
vt 0.848284 0.390954
vt 0.835660 0.360705
vt 0.850172 0.371897
vt 0.270548 0.697548
vt 0.264239 0.665801
vt 0.264233 0.633434
vt 0.282916 0.727454
vt 0.270529 0.601690
vt 0.300868 0.754370
vt 0.282886 0.571789
vt 0.323715 0.777261
vt 0.300828 0.544880
vt 0.350579 0.795249
vt 0.323666 0.521997
vt 0.380426 0.807641
vt 0.350522 0.504020
vt 0.412111 0.813962
vt 0.380365 0.491640
vt 0.444415 0.813968
vt 0.412047 0.485331
vt 0.476097 0.807660
vt 0.444351 0.485338
vt 0.505940 0.795279
vt 0.476036 0.491658
vt 0.532796 0.777302
vt 0.505884 0.504051
vt 0.555634 0.754419
vt 0.532747 0.522038
vt 0.573577 0.727510
vt 0.555594 0.544930
vt 0.585933 0.697609
vt 0.573546 0.571846
vt 0.592229 0.665865
vt 0.585914 0.601752
vt 0.592223 0.633498
vt 0.917929 0.508783
vt 0.999804 0.975490
vt 0.886614 0.516537
vt 0.855279 0.523758
vt 0.825128 0.530168
vt 0.797320 0.535521
vt 0.797320 0.485331
vt 0.797253 1.000295
vt 0.770356 0.486835
vt 0.740655 0.490185
vt 0.709360 0.495252
vt 0.677672 0.501842
vt 0.646810 0.509702
vt 0.617959 0.518529
vt 0.592229 0.527984
vt 0.497494 0.000034
vt 0.386628 0.485331
vt 0.471559 0.000479
vt 0.442344 0.000808
vt 0.410972 0.001008
vt 0.378648 0.001073
vt 0.346615 0.000999
vt 0.316104 0.000789
vt 0.288287 0.000452
vt 0.264233 0.000000
vt 0.000000 0.515030
vt 0.000782 0.000000
vt 0.019440 0.513466
vt 0.043255 0.510008
vt 0.070530 0.504788
vt 0.100217 0.498005
vt 0.131175 0.489922
vt 0.162215 0.480848
vt 0.192143 0.471133
vt 0.219810 0.461149
vt 0.244151 0.451281
vt 0.264233 0.441906
vt 1.000000 0.485331
vt 0.975733 0.492874
vt 0.948021 0.500793
usemtl Material.001
s off
f 47/1 1/2 3/3 45/4
f 4/5 2/6 48/7 46/8
f 45/9 3/10 5/11 43/12
f 6/13 4/5 46/8 44/14
f 3/15 9/16 7/17 5/18
f 8/19 10/20 4/21 6/22
f 1/2 11/23 9/24 3/3
f 10/25 12/26 2/27 4/28
f 11/23 13/29 15/30 9/24
f 16/31 14/32 12/26 10/25
f 9/16 15/33 17/34 7/17
f 18/35 16/36 10/20 8/19
f 15/37 21/38 19/39 17/40
f 20/41 22/42 16/31 18/43
f 13/29 23/44 21/45 15/30
f 22/42 24/46 14/32 16/31
f 23/44 25/47 27/48 21/45
f 28/49 26/50 24/46 22/42
f 21/38 27/51 29/52 19/39
f 30/53 28/54 22/55 20/56
f 27/57 33/58 31/59 29/60
f 32/61 34/62 28/63 30/64
f 25/47 35/65 33/66 27/48
f 34/67 36/68 26/50 28/49
f 35/65 37/69 39/70 33/66
f 40/71 38/72 36/68 34/67
f 33/58 39/73 41/74 31/59
f 42/75 40/76 34/62 32/61
f 39/77 45/9 43/12 41/78
f 44/14 46/8 40/79 42/80
f 37/69 47/1 45/4 39/70
f 46/8 48/7 38/81 40/79
f 47/82 37/83 51/84 49/85
f 52/86 38/81 48/7 50/87
f 37/88 35/89 53/90 51/91
f 54/92 36/93 38/94 52/95
f 35/89 25/96 55/97 53/90
f 56/97 26/98 36/93 54/92
f 25/99 23/100 57/101 55/102
f 58/103 24/104 26/105 56/106
f 23/100 13/107 59/108 57/101
f 60/109 14/110 24/104 58/103
f 13/111 11/112 63/113 59/114
f 64/115 12/116 14/117 60/118
f 11/112 1/119 65/120 63/113
f 66/120 2/121 12/116 64/115
f 1/122 47/82 49/85 65/123
f 50/87 48/7 2/6 66/124
f 61/125 65/126 49/127
f 50/128 66/129 62/130
f 63/131 65/126 61/125
f 62/130 66/129 64/132
f 61/125 59/133 63/131
f 64/132 60/134 62/130
f 61/125 57/135 59/133
f 60/134 58/136 62/130
f 61/125 55/137 57/135
f 58/136 56/138 62/130
f 61/125 53/139 55/137
f 56/138 54/140 62/130
f 61/125 51/141 53/139
f 54/140 52/142 62/130
f 61/125 49/127 51/141
f 52/142 50/128 62/130
f 89/143 174/144 176/145 91/146
f 176/145 175/147 90/148 91/146
f 87/149 172/150 174/144 89/143
f 175/147 173/151 88/152 90/148
f 85/153 170/154 172/155 87/156
f 173/157 171/158 86/159 88/160
f 83/161 168/162 170/154 85/153
f 171/163 169/164 84/165 86/166
f 81/167 166/168 168/162 83/161
f 169/164 167/169 82/170 84/165
f 79/171 92/172 146/173 164/174
f 147/175 93/176 80/177 165/178
f 92/179 94/180 148/181 146/182
f 149/183 95/184 93/176 147/175
f 94/180 96/185 150/186 148/181
f 151/187 97/188 95/189 149/190
f 96/185 98/191 152/192 150/186
f 153/193 99/194 97/188 151/187
f 98/191 100/195 154/196 152/192
f 155/197 101/198 99/199 153/200
f 100/201 102/202 156/203 154/204
f 157/205 103/206 101/207 155/208
f 102/209 104/210 158/211 156/212
f 159/213 105/214 103/215 157/216
f 104/210 106/217 160/218 158/211
f 161/219 107/220 105/221 159/222
f 106/223 108/224 162/225 160/226
f 163/227 109/228 107/220 161/219
f 108/224 67/229 68/230 162/225
f 68/231 67/232 109/228 163/227
f 110/233 128/234 160/218 162/235
f 161/219 129/236 111/237 163/227
f 128/234 179/238 158/211 160/218
f 159/222 180/239 129/236 161/219
f 126/240 156/212 158/211 179/238
f 159/222 157/241 127/242 180/239
f 124/243 154/196 156/212 126/240
f 157/241 155/197 125/244 127/242
f 122/245 152/192 154/196 124/243
f 155/197 153/200 123/246 125/244
f 120/247 150/186 152/192 122/245
f 153/200 151/248 121/249 123/246
f 118/250 148/181 150/186 120/247
f 151/248 149/251 119/252 121/249
f 116/253 146/182 148/181 118/250
f 149/251 147/254 117/255 119/252
f 114/256 164/257 146/182 116/253
f 147/254 165/258 115/259 117/255
f 114/256 181/260 177/261 164/257
f 177/261 182/262 115/259 165/258
f 110/233 162/235 68/231 112/263
f 68/231 163/227 111/237 113/264
f 112/263 68/231 178/265 183/266
f 178/265 68/231 113/264 184/267
f 177/261 181/260 183/266 178/265
f 184/267 182/262 177/261 178/265
f 135/268 137/269 176/145 174/144
f 176/145 137/269 136/270 175/147
f 133/271 135/272 174/273 172/155
f 175/274 136/275 134/276 173/157
f 131/277 133/271 172/155 170/154
f 173/157 134/276 132/278 171/158
f 166/168 187/279 185/280 168/162
f 186/281 188/282 167/283 169/284
f 131/277 170/154 168/162 185/280
f 169/284 171/158 132/278 186/281
f 144/285 190/286 189/287 187/279
f 189/287 190/286 145/288 188/282
f 185/280 187/279 189/287 69/289
f 189/287 188/282 186/281 69/289
f 130/290 131/277 185/280 69/289
f 186/281 132/278 130/290 69/289
f 142/291 193/292 191/293 144/294
f 192/295 194/296 143/297 145/298
f 140/299 195/300 193/292 142/291
f 194/296 196/301 141/302 143/297
f 139/303 197/304 195/305 140/306
f 196/307 198/308 139/309 141/310
f 138/311 71/312 197/313 139/314
f 198/315 71/316 138/317 139/318
f 190/319 144/320 191/321 70/322
f 192/323 145/324 190/319 70/322
f 70/325 191/326 206/327 208/328
f 207/329 192/330 70/325 208/328
f 71/312 199/331 200/332 197/313
f 201/333 199/334 71/316 198/315
f 197/304 200/335 202/336 195/305
f 203/337 201/338 198/308 196/307
f 195/300 202/339 204/340 193/292
f 205/341 203/342 196/301 194/296
f 193/343 204/344 206/345 191/346
f 207/347 205/348 194/349 192/350
f 199/351 204/352 202/353 200/354
f 203/355 205/356 199/351 201/357
f 199/351 208/328 206/327 204/352
f 207/329 208/328 199/351 205/356
f 139/358 140/359 164/257 177/261
f 165/258 141/360 139/358 177/261
f 140/359 142/361 211/362 164/257
f 212/363 143/364 141/360 165/258
f 142/361 144/285 213/365 211/362
f 214/366 145/288 143/364 212/363
f 144/285 187/279 166/168 213/365
f 167/283 188/282 145/288 214/366
f 81/367 209/368 213/369 166/370
f 214/371 210/372 82/170 167/169
f 209/368 215/373 211/374 213/369
f 212/375 216/376 210/372 214/371
f 79/377 164/378 211/374 215/373
f 212/375 165/379 80/380 216/376
f 131/277 130/290 72/381 222/382
f 72/383 130/384 132/385 223/386
f 133/271 131/277 222/382 220/387
f 223/388 132/278 134/276 221/389
f 135/272 133/271 220/387 218/390
f 221/389 134/276 136/275 219/391
f 137/392 135/272 218/390 217/393
f 219/391 136/275 137/392 217/393
f 217/394 218/395 229/396 231/397
f 230/398 219/399 217/394 231/397
f 218/400 220/401 227/402 229/403
f 228/404 221/405 219/406 230/407
f 220/401 222/408 225/409 227/402
f 226/410 223/411 221/405 228/404
f 222/412 72/383 224/413 225/414
f 224/413 72/383 223/386 226/415
f 224/416 231/417 229/418 225/419
f 230/420 231/417 224/416 226/421
f 225/419 229/418 227/422
f 228/423 230/420 226/421
f 183/266 181/260 234/424 232/425
f 235/426 182/262 184/267 233/427
f 112/263 183/266 232/425 254/428
f 233/427 184/267 113/264 255/429
f 110/233 112/263 254/428 256/430
f 255/429 113/264 111/237 257/431
f 181/260 114/256 252/432 234/424
f 253/433 115/259 182/262 235/426
f 114/434 116/435 250/436 252/437
f 251/438 117/439 115/440 253/441
f 116/253 118/250 248/442 250/443
f 249/444 119/445 117/439 251/438
f 118/250 120/247 246/446 248/442
f 247/447 121/249 119/252 249/448
f 120/247 122/245 244/449 246/446
f 245/450 123/246 121/249 247/447
f 122/245 124/243 242/451 244/449
f 243/452 125/244 123/246 245/450
f 124/243 126/240 240/453 242/451
f 241/454 127/455 125/456 243/457
f 126/240 179/238 236/458 240/453
f 237/459 180/239 127/242 241/460
f 179/238 128/234 238/461 236/458
f 239/462 129/236 180/239 237/459
f 128/234 110/233 256/430 238/461
f 257/431 111/237 129/236 239/462
f 238/461 256/430 258/463 276/464
f 259/465 257/431 239/462 277/466
f 236/458 238/461 276/464 278/467
f 277/466 239/462 237/459 279/468
f 240/469 236/470 278/471 274/472
f 279/468 237/459 241/460 275/473
f 242/474 240/469 274/472 272/475
f 275/476 241/477 243/478 273/479
f 244/449 242/451 272/480 270/481
f 273/482 243/452 245/450 271/483
f 246/446 244/449 270/481 268/484
f 271/483 245/450 247/447 269/485
f 248/442 246/446 268/484 266/486
f 269/485 247/447 249/448 267/487
f 250/443 248/442 266/486 264/488
f 267/487 249/448 251/489 265/490
f 252/432 250/443 264/488 262/491
f 265/490 251/489 253/433 263/492
f 234/424 252/432 262/491 280/493
f 263/494 253/495 235/496 281/497
f 256/430 254/428 260/498 258/463
f 261/499 255/500 257/501 259/502
f 254/428 232/425 282/503 260/498
f 283/504 233/505 255/500 261/499
f 232/425 234/424 280/493 282/503
f 281/506 235/507 233/505 283/504
f 67/508 108/509 284/510 73/511
f 285/512 109/513 67/508 73/511
f 108/224 106/223 286/514 284/515
f 287/516 107/517 109/518 285/519
f 106/520 104/521 288/522 286/523
f 289/524 105/525 107/526 287/527
f 104/528 102/529 290/530 288/531
f 291/532 103/206 105/525 289/524
f 102/202 100/201 292/533 290/534
f 293/535 101/207 103/206 291/532
f 100/201 98/536 294/537 292/533
f 295/538 99/539 101/207 293/535
f 98/540 96/541 296/542 294/543
f 297/544 97/188 99/194 295/545
f 96/546 94/547 298/548 296/549
f 299/550 95/184 97/551 297/552
f 94/547 92/172 300/553 298/548
f 301/554 93/176 95/184 299/550
f 308/555 309/556 328/557 338/558
f 329/559 309/556 308/555 339/560
f 307/561 308/555 338/558 336/562
f 339/560 308/555 307/561 337/563
f 306/564 307/561 336/562 340/565
f 337/563 307/561 306/564 341/566
f 89/143 91/146 306/567 340/568
f 306/567 91/146 90/148 341/569
f 87/149 89/143 340/568 334/570
f 341/569 90/148 88/152 335/571
f 85/572 87/573 334/574 330/575
f 335/576 88/577 86/166 331/578
f 83/579 85/572 330/575 332/580
f 331/578 86/166 84/165 333/581
f 330/582 336/562 338/558 332/583
f 339/560 337/563 331/584 333/585
f 330/582 334/586 340/565 336/562
f 341/566 335/587 331/584 337/563
f 326/588 332/583 338/558 328/557
f 339/589 333/581 327/590 329/591
f 81/367 83/579 332/580 326/592
f 333/581 84/165 82/170 327/590
f 209/368 342/593 344/594 215/373
f 345/595 343/596 210/372 216/376
f 81/367 326/592 342/593 209/368
f 343/596 327/590 82/170 210/372
f 79/377 215/373 344/594 346/597
f 345/595 216/376 80/380 347/598
f 79/171 346/599 300/553 92/172
f 301/554 347/600 80/177 93/176
f 77/601 324/602 352/603 304/604
f 353/605 325/606 77/601 304/604
f 304/607 352/608 350/609 78/610
f 351/611 353/612 304/607 78/610
f 78/610 350/609 348/613 305/614
f 349/615 351/611 78/610 305/614
f 305/614 348/613 328/616 309/617
f 329/618 349/615 305/614 309/617
f 326/592 328/619 348/620 342/593
f 349/621 329/591 327/590 343/596
f 296/542 298/622 318/623 310/624
f 319/625 299/626 297/544 311/627
f 76/628 316/629 324/602 77/601
f 325/606 317/630 76/628 77/601
f 302/631 358/632 356/633 303/634
f 357/635 359/636 302/631 303/634
f 303/634 356/633 354/637 75/638
f 355/639 357/635 303/634 75/638
f 75/640 354/641 316/629 76/628
f 317/630 355/642 75/640 76/628
f 292/533 294/537 362/643 364/644
f 363/645 295/538 293/535 365/646
f 364/644 362/643 368/647 366/648
f 369/649 363/645 365/646 367/650
f 366/648 368/647 370/651 372/652
f 371/653 369/649 367/650 373/654
f 372/655 370/656 376/657 374/658
f 377/659 371/660 373/661 375/662
f 314/663 378/664 374/665 376/666
f 375/662 379/667 315/668 377/659
f 316/629 354/641 374/665 378/664
f 375/669 355/642 317/630 379/670
f 354/671 356/672 372/655 374/658
f 373/661 357/673 355/674 375/662
f 356/672 358/675 366/676 372/655
f 367/677 359/678 357/673 373/661
f 358/675 360/679 364/680 366/676
f 365/681 361/682 359/678 367/677
f 290/534 292/533 364/644 360/683
f 365/646 293/535 291/532 361/684
f 74/685 360/686 358/687 302/688
f 359/689 361/690 74/685 302/688
f 284/691 286/692 288/693 290/694
f 289/695 287/696 285/697 291/698
f 284/699 290/534 360/683 74/700
f 361/684 291/532 285/701 74/702
f 73/703 284/704 74/705
f 74/705 285/706 73/703
f 294/543 296/542 310/624 362/707
f 311/627 297/544 295/545 363/708
f 310/624 312/709 368/710 362/707
f 369/711 313/712 311/627 363/708
f 312/709 382/713 370/656 368/710
f 371/660 383/714 313/712 369/711
f 314/715 376/657 370/656 382/713
f 371/660 377/659 315/668 383/714
f 348/613 350/609 386/716 384/717
f 387/718 351/611 349/615 385/719
f 318/720 384/717 386/716 320/721
f 387/718 385/719 319/722 321/723
f 298/548 300/553 384/717 318/720
f 385/719 301/554 299/550 319/722
f 300/553 344/724 342/725 384/717
f 343/726 345/727 301/554 385/719
f 342/725 348/613 384/717
f 385/719 349/615 343/726
f 300/728 346/729 344/730
f 345/731 347/732 301/733
f 314/663 322/734 380/735 378/664
f 381/736 323/737 315/738 379/670
f 316/629 378/664 380/735 324/602
f 381/736 379/670 317/630 325/606
f 320/721 386/716 380/739 322/740
f 381/741 387/718 321/723 323/742
f 350/609 352/608 380/739 386/716
f 381/743 353/744 351/745 387/746
f 324/602 380/735 352/603
f 353/605 381/736 325/606
f 400/747 388/748 414/749 402/750
f 415/751 389/752 401/753 403/754
f 400/747 402/750 404/755 398/756
f 405/757 403/754 401/753 399/758
f 398/756 404/755 406/759 396/760
f 407/761 405/757 399/758 397/762
f 396/760 406/759 408/763 394/764
f 409/765 407/761 397/762 395/766
f 394/764 408/763 410/767 392/768
f 411/769 409/765 395/766 393/770
f 392/768 410/767 412/771 390/772
f 413/773 411/769 393/770 391/774
f 410/767 420/775 418/776 412/771
f 419/777 421/778 411/779 413/780
f 408/781 422/782 420/783 410/784
f 421/778 423/785 409/786 411/779
f 406/787 424/788 422/789 408/790
f 423/791 425/792 407/793 409/794
f 404/755 426/795 424/796 406/759
f 425/797 427/798 405/757 407/761
f 402/750 428/799 426/795 404/755
f 427/800 429/801 403/802 405/803
f 402/750 414/749 416/804 428/799
f 417/805 415/806 403/807 429/434
f 318/720 320/721 444/808 442/809
f 445/810 321/723 319/722 443/811
f 320/812 390/772 412/771 444/813
f 413/773 391/774 321/814 445/815
f 310/624 318/623 442/816 312/709
f 443/817 319/625 311/627 313/712
f 382/818 430/819 414/749 388/748
f 415/751 431/820 383/821 389/752
f 412/822 418/823 440/824 444/825
f 441/826 419/777 413/780 445/827
f 438/828 446/829 444/75 440/830
f 445/831 447/832 439/833 441/834
f 434/835 446/829 438/828 436/836
f 439/833 447/832 435/837 437/838
f 432/839 448/840 446/841 434/842
f 447/843 449/844 433/845 435/846
f 430/819 448/847 432/848 450/849
f 433/850 449/851 431/820 451/852
f 414/749 430/819 450/849 416/804
f 451/852 431/820 415/751 417/853
f 312/709 448/840 430/854 382/713
f 431/855 449/844 313/712 383/714
f 312/709 442/816 446/841 448/840
f 447/843 443/817 313/712 449/844
f 442/816 444/856 446/841
f 447/843 445/857 443/817
f 416/858 450/859 452/860 476/861
f 453/862 451/863 417/864 477/865
f 450/866 432/867 462/868 452/869
f 463/870 433/871 451/872 453/873
f 432/874 434/875 460/876 462/877
f 461/878 435/879 433/880 463/875
f 434/881 436/882 458/883 460/884
f 459/885 437/886 435/887 461/888
f 436/889 438/890 456/891 458/892
f 457/866 439/893 437/894 459/895
f 438/896 440/897 454/898 456/899
f 455/900 441/901 439/902 457/903
f 440/824 418/823 474/904 454/905
f 475/906 419/777 441/826 455/907
f 428/908 416/858 476/861 464/909
f 477/865 417/864 429/801 465/910
f 426/911 428/908 464/909 466/912
f 465/910 429/801 427/800 467/913
f 424/788 426/914 466/915 468/916
f 467/917 427/918 425/792 469/919
f 422/789 424/788 468/916 470/920
f 469/919 425/792 423/791 471/921
f 420/783 422/782 470/922 472/923
f 471/924 423/785 421/778 473/925
f 418/823 420/783 472/923 474/904
f 473/925 421/778 419/777 475/906
f 458/926 456/927 480/928 478/929
f 481/930 457/931 459/932 479/933
f 478/929 480/928 482/934 484/935
f 483/936 481/930 479/933 485/937
f 484/935 482/934 488/938 486/939
f 489/940 483/936 485/937 487/941
f 486/939 488/938 490/942 492/943
f 491/944 489/940 487/941 493/945
f 464/946 476/947 486/939 492/943
f 487/941 477/948 465/949 493/945
f 452/950 484/935 486/939 476/947
f 487/941 485/937 453/951 477/948
f 452/950 462/952 478/929 484/935
f 479/933 463/953 453/951 485/937
f 458/926 478/929 462/952 460/954
f 463/953 479/933 459/932 461/955
f 454/905 474/904 480/956 456/957
f 481/958 475/906 455/907 457/959
f 472/960 482/934 480/928 474/961
f 481/930 483/936 473/962 475/963
f 470/964 488/938 482/934 472/960
f 483/936 489/940 471/965 473/962
f 468/966 490/942 488/938 470/964
f 489/940 491/944 469/967 471/965
f 466/968 492/943 490/942 468/966
f 491/944 493/945 467/969 469/967
f 464/946 492/943 466/968
f 467/969 493/945 465/949
f 392/970 390/971 504/972 502/973
f 505/974 391/975 393/976 503/977
f 394/978 392/970 502/973 500/979
f 503/977 393/976 395/980 501/981
f 396/982 394/983 500/984 498/985
f 501/986 395/987 397/988 499/989
f 398/743 396/982 498/985 496/990
f 499/989 397/988 399/991 497/992
f 400/993 398/994 496/995 494/996
f 497/997 399/998 401/999 495/1000
f 388/1001 400/993 494/996 506/1002
f 495/1000 401/999 389/1003 507/1004
f 494/1005 502/1006 504/1007 506/1008
f 505/1009 503/1010 495/1011 507/1012
f 494/1005 496/1013 500/1014 502/1006
f 501/1015 497/1016 495/1011 503/1010
f 496/1013 498/1017 500/1014
f 501/1015 499/1018 497/1016
f 314/1019 382/1020 388/1021 506/1022
f 389/1023 383/520 315/1024 507/1025
f 314/663 506/1008 504/1007 322/734
f 505/1009 507/1012 315/738 323/737
f 320/721 322/740 504/972 390/971
f 505/974 323/742 321/723 391/975
f 524/1026 525/1027 526/1028
f 523/1029 524/1026 526/1028
f 523/1029 526/1028 527/1030
f 522/1031 523/1029 527/1030
f 522/1031 527/1030 528/1032
f 521/1033 522/1031 528/1032
f 521/1033 528/1032 529/1034
f 520/1035 521/1033 529/1034
f 520/1035 529/1034 530/1036
f 519/1037 520/1035 530/1036
f 519/1037 530/1036 531/1038
f 518/1039 519/1037 531/1038
f 518/1039 531/1038 532/1040
f 517/1041 518/1039 532/1040
f 517/1041 532/1040 533/1042
f 516/1043 517/1041 533/1042
f 516/1043 533/1042 534/1044
f 515/1045 516/1043 534/1044
f 515/1045 534/1044 535/1046
f 514/1047 515/1045 535/1046
f 514/1047 535/1046 536/1048
f 513/1049 514/1047 536/1048
f 513/1049 536/1048 537/1050
f 512/1051 513/1049 537/1050
f 512/1051 537/1050 538/1052
f 511/1053 512/1051 538/1052
f 511/1053 538/1052 539/1054
f 510/1055 511/1053 539/1054
f 510/1055 539/1054 540/1056
f 508/1057 510/1055 540/1056
f 508/1058 509/1059 510/1060
f 510/1060 509/1059 511/1061
f 511/1061 509/1059 512/1062
f 512/1062 509/1059 513/1063
f 513/1064 509/1065 514/1066
f 514/1066 509/1065 515/1067
f 515/1067 509/1065 516/1068
f 516/1068 509/1065 517/1069
f 517/1069 509/1065 518/1070
f 518/1070 509/1065 519/1071
f 519/1071 509/1065 520/1072
f 520/1073 509/1074 521/1075
f 521/1075 509/1074 522/1076
f 522/1076 509/1074 523/1077
f 523/1077 509/1074 524/1078
f 524/1078 509/1074 525/1079
f 525/1079 509/1074 526/1080
f 526/1080 509/1074 527/1081
f 527/1081 509/1074 528/1082
f 528/1083 509/1084 529/1085
f 529/1085 509/1084 530/1086
f 530/1086 509/1084 531/1087
f 531/1087 509/1084 532/1088
f 532/1088 509/1084 533/1089
f 533/1089 509/1084 534/1090
f 534/1090 509/1084 535/1091
f 535/1091 509/1084 536/1092
f 536/1092 509/1084 537/1093
f 537/1093 509/1084 538/1094
f 538/1095 509/1059 539/1096
f 540/1097 509/1059 508/1058
f 539/1096 509/1059 540/1097
