# Blender v2.63 (sub 0) OBJ File: ''
# www.blender.org
mtllib monkey.mtl
o Monkey
v 0.437500 0.164062 0.765625
v -0.437500 0.164062 0.765625
v 0.500000 0.093750 0.687500
v -0.500000 0.093750 0.687500
v 0.546875 0.054687 0.578125
v -0.546875 0.054687 0.578125
v 0.351562 -0.023438 0.617188
v -0.351562 -0.023438 0.617188
v 0.351562 0.031250 0.718750
v -0.351562 0.031250 0.718750
v 0.351562 0.132812 0.781250
v -0.351562 0.132812 0.781250
v 0.273438 0.164062 0.796875
v -0.273438 0.164062 0.796875
v 0.203125 0.093750 0.742188
v -0.203125 0.093750 0.742188
v 0.156250 0.054687 0.648438
v -0.156250 0.054687 0.648438
v 0.078125 0.242187 0.656250
v -0.078125 0.242187 0.656250
v 0.140625 0.242187 0.742188
v -0.140625 0.242187 0.742188
v 0.242188 0.242187 0.796875
v -0.242188 0.242187 0.796875
v 0.273438 0.328125 0.796875
v -0.273438 0.328125 0.796875
v 0.203125 0.390625 0.742188
v -0.203125 0.390625 0.742188
v 0.156250 0.437500 0.648438
v -0.156250 0.437500 0.648438
v 0.351562 0.515625 0.617188
v -0.351562 0.515625 0.617188
v 0.351562 0.453125 0.718750
v -0.351562 0.453125 0.718750
v 0.351562 0.359375 0.781250
v -0.351562 0.359375 0.781250
v 0.437500 0.328125 0.765625
v -0.437500 0.328125 0.765625
v 0.500000 0.390625 0.687500
v -0.500000 0.390625 0.687500
v 0.546875 0.437500 0.578125
v -0.546875 0.437500 0.578125
v 0.625000 0.242187 0.562500
v -0.625000 0.242187 0.562500
v 0.562500 0.242187 0.671875
v -0.562500 0.242187 0.671875
v 0.468750 0.242187 0.757812
v -0.468750 0.242187 0.757812
v 0.476562 0.242187 0.773438
v -0.476562 0.242187 0.773438
v 0.445312 0.335937 0.781250
v -0.445312 0.335937 0.781250
v 0.351562 0.375000 0.804688
v -0.351562 0.375000 0.804688
v 0.265625 0.335937 0.820312
v -0.265625 0.335937 0.820312
v 0.226562 0.242187 0.820312
v -0.226562 0.242187 0.820312
v 0.265625 0.156250 0.820312
v -0.265625 0.156250 0.820312
v 0.351562 0.242187 0.828125
v -0.351562 0.242187 0.828125
v 0.351562 0.117187 0.804688
v -0.351562 0.117187 0.804688
v 0.445312 0.156250 0.781250
v -0.445312 0.156250 0.781250
v 0.000000 0.429687 0.742188
v 0.000000 0.351562 0.820312
v 0.000000 -0.679688 0.734375
v 0.000000 -0.320313 0.781250
v 0.000000 -0.187500 0.796875
v 0.000000 -0.773438 0.718750
v 0.000000 0.406250 0.601562
v 0.000000 0.570312 0.570312
v 0.000000 0.898438 -0.546875
v 0.000000 0.562500 -0.851562
v 0.000000 0.070313 -0.828125
v 0.000000 -0.382812 -0.351563
v 0.203125 -0.187500 0.562500
v -0.203125 -0.187500 0.562500
v 0.312500 -0.437500 0.570312
v -0.312500 -0.437500 0.570312
v 0.351562 -0.695312 0.570312
v -0.351562 -0.695312 0.570312
v 0.367188 -0.890625 0.531250
v -0.367188 -0.890625 0.531250
v 0.328125 -0.945312 0.523437
v -0.328125 -0.945312 0.523437
v 0.179688 -0.968750 0.554687
v -0.179688 -0.968750 0.554687
v 0.000000 -0.984375 0.578125
v 0.437500 -0.140625 0.531250
v -0.437500 -0.140625 0.531250
v 0.632812 -0.039063 0.539062
v -0.632812 -0.039063 0.539062
v 0.828125 0.148437 0.445312
v -0.828125 0.148437 0.445312
v 0.859375 0.429687 0.593750
v -0.859375 0.429687 0.593750
v 0.710938 0.484375 0.625000
v -0.710938 0.484375 0.625000
v 0.492188 0.601562 0.687500
v -0.492188 0.601562 0.687500
v 0.320312 0.757812 0.734375
v -0.320312 0.757812 0.734375
v 0.156250 0.718750 0.757813
v -0.156250 0.718750 0.757813
v 0.062500 0.492187 0.750000
v -0.062500 0.492187 0.750000
v 0.164062 0.414062 0.773438
v -0.164062 0.414062 0.773438
v 0.125000 0.304687 0.765625
v -0.125000 0.304687 0.765625
v 0.203125 0.093750 0.742188
v -0.203125 0.093750 0.742188
v 0.375000 0.015625 0.703125
v -0.375000 0.015625 0.703125
v 0.492188 0.062500 0.671875
v -0.492188 0.062500 0.671875
v 0.625000 0.187500 0.648438
v -0.625000 0.187500 0.648438
v 0.640625 0.296875 0.648438
v -0.640625 0.296875 0.648438
v 0.601562 0.375000 0.664062
v -0.601562 0.375000 0.664062
v 0.429688 0.437500 0.718750
v -0.429688 0.437500 0.718750
v 0.250000 0.468750 0.757812
v -0.250000 0.468750 0.757812
v 0.000000 -0.765625 0.734375
v 0.109375 -0.718750 0.734375
v -0.109375 -0.718750 0.734375
v 0.117188 -0.835938 0.710937
v -0.117188 -0.835938 0.710937
v 0.062500 -0.882813 0.695312
v -0.062500 -0.882813 0.695312
v 0.000000 -0.890625 0.687500
v 0.000000 -0.195313 0.750000
v 0.000000 -0.140625 0.742188
v 0.101562 -0.148438 0.742188
v -0.101562 -0.148438 0.742188
v 0.125000 -0.226563 0.750000
v -0.125000 -0.226563 0.750000
v 0.085938 -0.289063 0.742188
v -0.085938 -0.289063 0.742188
v 0.398438 -0.046875 0.671875
v -0.398438 -0.046875 0.671875
v 0.617188 0.054687 0.625000
v -0.617188 0.054687 0.625000
v 0.726562 0.203125 0.601562
v -0.726562 0.203125 0.601562
v 0.742188 0.375000 0.656250
v -0.742188 0.375000 0.656250
v 0.687500 0.414062 0.726562
v -0.687500 0.414062 0.726562
v 0.437500 0.546875 0.796875
v -0.437500 0.546875 0.796875
v 0.312500 0.640625 0.835938
v -0.312500 0.640625 0.835938
v 0.203125 0.617187 0.851562
v -0.203125 0.617187 0.851562
v 0.101562 0.429687 0.843750
v -0.101562 0.429687 0.843750
v 0.125000 -0.101563 0.812500
v -0.125000 -0.101563 0.812500
v 0.210938 -0.445313 0.710938
v -0.210938 -0.445313 0.710938
v 0.250000 -0.703125 0.687500
v -0.250000 -0.703125 0.687500
v 0.265625 -0.820312 0.664062
v -0.265625 -0.820312 0.664062
v 0.234375 -0.914062 0.632812
v -0.234375 -0.914062 0.632812
v 0.164062 -0.929688 0.632812
v -0.164062 -0.929688 0.632812
v 0.000000 -0.945312 0.640625
v 0.000000 0.046875 0.726562
v 0.000000 0.210937 0.765625
v 0.328125 0.476562 0.742188
v -0.328125 0.476562 0.742188
v 0.164062 0.140625 0.750000
v -0.164062 0.140625 0.750000
v 0.132812 0.210937 0.757812
v -0.132812 0.210937 0.757812
v 0.117188 -0.687500 0.734375
v -0.117188 -0.687500 0.734375
v 0.078125 -0.445313 0.750000
v -0.078125 -0.445313 0.750000
v 0.000000 -0.445313 0.750000
v 0.000000 -0.328125 0.742188
v 0.093750 -0.273438 0.781250
v -0.093750 -0.273438 0.781250
v 0.132812 -0.226563 0.796875
v -0.132812 -0.226563 0.796875
v 0.109375 -0.132813 0.781250
v -0.109375 -0.132813 0.781250
v 0.039062 -0.125000 0.781250
v -0.039062 -0.125000 0.781250
v 0.000000 -0.203125 0.828125
v 0.046875 -0.148438 0.812500
v -0.046875 -0.148438 0.812500
v 0.093750 -0.156250 0.812500
v -0.093750 -0.156250 0.812500
v 0.109375 -0.226563 0.828125
v -0.109375 -0.226563 0.828125
v 0.078125 -0.250000 0.804688
v -0.078125 -0.250000 0.804688
v 0.000000 -0.289063 0.804688
v 0.257812 -0.312500 0.554688
v -0.257812 -0.312500 0.554688
v 0.164062 -0.242188 0.710938
v -0.164062 -0.242188 0.710938
v 0.179688 -0.312500 0.710938
v -0.179688 -0.312500 0.710938
v 0.234375 -0.250000 0.554688
v -0.234375 -0.250000 0.554688
v 0.000000 -0.875000 0.687500
v 0.046875 -0.867188 0.687500
v -0.046875 -0.867188 0.687500
v 0.093750 -0.820313 0.710937
v -0.093750 -0.820313 0.710937
v 0.093750 -0.742188 0.726562
v -0.093750 -0.742188 0.726562
v 0.000000 -0.781250 0.656250
v 0.093750 -0.750000 0.664062
v -0.093750 -0.750000 0.664062
v 0.093750 -0.812500 0.640625
v -0.093750 -0.812500 0.640625
v 0.046875 -0.851562 0.632812
v -0.046875 -0.851562 0.632812
v 0.000000 -0.859375 0.632812
v 0.171875 0.218750 0.781250
v -0.171875 0.218750 0.781250
v 0.187500 0.156250 0.773438
v -0.187500 0.156250 0.773438
v 0.335938 0.429687 0.757812
v -0.335938 0.429687 0.757812
v 0.273438 0.421875 0.773438
v -0.273438 0.421875 0.773438
v 0.421875 0.398437 0.773438
v -0.421875 0.398437 0.773438
v 0.562500 0.351562 0.695312
v -0.562500 0.351562 0.695312
v 0.585938 0.289062 0.687500
v -0.585938 0.289062 0.687500
v 0.578125 0.195312 0.679688
v -0.578125 0.195312 0.679688
v 0.476562 0.101562 0.718750
v -0.476562 0.101562 0.718750
v 0.375000 0.062500 0.742188
v -0.375000 0.062500 0.742188
v 0.226562 0.109375 0.781250
v -0.226562 0.109375 0.781250
v 0.179688 0.296875 0.781250
v -0.179688 0.296875 0.781250
v 0.210938 0.375000 0.781250
v -0.210938 0.375000 0.781250
v 0.234375 0.359375 0.757812
v -0.234375 0.359375 0.757812
v 0.195312 0.296875 0.757812
v -0.195312 0.296875 0.757812
v 0.242188 0.125000 0.757812
v -0.242188 0.125000 0.757812
v 0.375000 0.085937 0.726562
v -0.375000 0.085937 0.726562
v 0.460938 0.117187 0.703125
v -0.460938 0.117187 0.703125
v 0.546875 0.210937 0.671875
v -0.546875 0.210937 0.671875
v 0.554688 0.281250 0.671875
v -0.554688 0.281250 0.671875
v 0.531250 0.335937 0.679688
v -0.531250 0.335937 0.679688
v 0.414062 0.390625 0.750000
v -0.414062 0.390625 0.750000
v 0.281250 0.398437 0.765625
v -0.281250 0.398437 0.765625
v 0.335938 0.406250 0.750000
v -0.335938 0.406250 0.750000
v 0.203125 0.171875 0.750000
v -0.203125 0.171875 0.750000
v 0.195312 0.226562 0.750000
v -0.195312 0.226562 0.750000
v 0.109375 0.460937 0.609375
v -0.109375 0.460937 0.609375
v 0.195312 0.664062 0.617188
v -0.195312 0.664062 0.617188
v 0.335938 0.687500 0.593750
v -0.335938 0.687500 0.593750
v 0.484375 0.554688 0.554688
v -0.484375 0.554688 0.554688
v 0.679688 0.453125 0.492188
v -0.679688 0.453125 0.492188
v 0.796875 0.406250 0.460938
v -0.796875 0.406250 0.460938
v 0.773438 0.164062 0.375000
v -0.773438 0.164062 0.375000
v 0.601562 -0.000000 0.414062
v -0.601562 -0.000000 0.414062
v 0.437500 -0.093750 0.468750
v -0.437500 -0.093750 0.468750
v 0.000000 0.898438 0.289063
v 0.000000 0.984375 -0.078125
v 0.000000 -0.195312 -0.671875
v 0.000000 -0.460938 0.187500
v 0.000000 -0.976562 0.460937
v 0.000000 -0.804688 0.343750
v 0.000000 -0.570312 0.320312
v 0.000000 -0.484375 0.281250
v 0.851562 0.234375 0.054688
v -0.851562 0.234375 0.054688
v 0.859375 0.320312 -0.046875
v -0.859375 0.320312 -0.046875
v 0.773438 0.265625 -0.437500
v -0.773438 0.265625 -0.437500
v 0.460938 0.437500 -0.703125
v -0.460938 0.437500 -0.703125
v 0.734375 -0.046875 0.070312
v -0.734375 -0.046875 0.070312
v 0.593750 -0.125000 -0.164062
v -0.593750 -0.125000 -0.164062
v 0.640625 -0.007812 -0.429688
v -0.640625 -0.007812 -0.429688
v 0.335938 0.054688 -0.664062
v -0.335938 0.054688 -0.664062
v 0.234375 -0.351563 0.406250
v -0.234375 -0.351563 0.406250
v 0.179688 -0.414062 0.257812
v -0.179688 -0.414062 0.257812
v 0.289062 -0.710938 0.382812
v -0.289062 -0.710938 0.382812
v 0.250000 -0.500000 0.390625
v -0.250000 -0.500000 0.390625
v 0.328125 -0.914062 0.398437
v -0.328125 -0.914062 0.398437
v 0.140625 -0.757812 0.367187
v -0.140625 -0.757812 0.367187
v 0.125000 -0.539062 0.359375
v -0.125000 -0.539062 0.359375
v 0.164062 -0.945312 0.437500
v -0.164062 -0.945312 0.437500
v 0.218750 -0.281250 0.429688
v -0.218750 -0.281250 0.429688
v 0.210938 -0.226563 0.468750
v -0.210938 -0.226563 0.468750
v 0.203125 -0.171875 0.500000
v -0.203125 -0.171875 0.500000
v 0.210938 -0.390625 0.164062
v -0.210938 -0.390625 0.164062
v 0.296875 -0.312500 -0.265625
v -0.296875 -0.312500 -0.265625
v 0.343750 -0.148437 -0.539062
v -0.343750 -0.148437 -0.539062
v 0.453125 0.867188 -0.382812
v -0.453125 0.867188 -0.382812
v 0.453125 0.929688 -0.070312
v -0.453125 0.929688 -0.070312
v 0.453125 0.851562 0.234375
v -0.453125 0.851562 0.234375
v 0.460938 0.523438 0.429688
v -0.460938 0.523438 0.429688
v 0.726562 0.406250 0.335938
v -0.726562 0.406250 0.335938
v 0.632812 0.453125 0.281250
v -0.632812 0.453125 0.281250
v 0.640625 0.703125 0.054688
v -0.640625 0.703125 0.054688
v 0.796875 0.562500 0.125000
v -0.796875 0.562500 0.125000
v 0.796875 0.617188 -0.117187
v -0.796875 0.617188 -0.117187
v 0.640625 0.750000 -0.195312
v -0.640625 0.750000 -0.195312
v 0.640625 0.679688 -0.445312
v -0.640625 0.679688 -0.445312
v 0.796875 0.539062 -0.359375
v -0.796875 0.539062 -0.359375
v 0.617188 0.328125 -0.585938
v -0.617188 0.328125 -0.585938
v 0.484375 0.023438 -0.546875
v -0.484375 0.023438 -0.546875
v 0.820312 0.328125 -0.203125
v -0.820312 0.328125 -0.203125
v 0.406250 -0.171875 0.148437
v -0.406250 -0.171875 0.148437
v 0.429688 -0.195312 -0.210938
v -0.429688 -0.195312 -0.210938
v 0.890625 0.406250 -0.234375
v -0.890625 0.406250 -0.234375
v 0.773438 -0.140625 -0.125000
v -0.773438 -0.140625 -0.125000
v 1.039062 -0.101562 -0.328125
v -1.039062 -0.101562 -0.328125
v 1.281250 0.054688 -0.429688
v -1.281250 0.054688 -0.429688
v 1.351562 0.320313 -0.421875
v -1.351562 0.320313 -0.421875
v 1.234375 0.507812 -0.421875
v -1.234375 0.507812 -0.421875
v 1.023438 0.476562 -0.312500
v -1.023438 0.476562 -0.312500
v 1.015625 0.414062 -0.289062
v -1.015625 0.414062 -0.289062
v 1.187500 0.437500 -0.390625
v -1.187500 0.437500 -0.390625
v 1.265625 0.289063 -0.406250
v -1.265625 0.289063 -0.406250
v 1.210938 0.078125 -0.406250
v -1.210938 0.078125 -0.406250
v 1.031250 -0.039062 -0.304688
v -1.031250 -0.039062 -0.304688
v 0.828125 -0.070312 -0.132812
v -0.828125 -0.070312 -0.132812
v 0.921875 0.359375 -0.218750
v -0.921875 0.359375 -0.218750
v 0.945312 0.304688 -0.289062
v -0.945312 0.304688 -0.289062
v 0.882812 -0.023437 -0.210938
v -0.882812 -0.023437 -0.210938
v 1.039062 0.000000 -0.367188
v -1.039062 0.000000 -0.367188
v 1.187500 0.093750 -0.445312
v -1.187500 0.093750 -0.445312
v 1.234375 0.250000 -0.445312
v -1.234375 0.250000 -0.445312
v 1.171875 0.359375 -0.437500
v -1.171875 0.359375 -0.437500
v 1.023438 0.343750 -0.359375
v -1.023438 0.343750 -0.359375
v 0.843750 0.289062 -0.210937
v -0.843750 0.289062 -0.210937
v 0.835938 0.171875 -0.273438
v -0.835938 0.171875 -0.273438
v 0.757812 0.093750 -0.273438
v -0.757812 0.093750 -0.273438
v 0.820312 0.085938 -0.273438
v -0.820312 0.085938 -0.273438
v 0.843750 0.015625 -0.273438
v -0.843750 0.015625 -0.273438
v 0.812500 -0.015625 -0.273438
v -0.812500 -0.015625 -0.273438
v 0.726562 0.000000 -0.070312
v -0.726562 0.000000 -0.070312
v 0.718750 -0.023437 -0.171875
v -0.718750 -0.023437 -0.171875
v 0.718750 0.039063 -0.187500
v -0.718750 0.039063 -0.187500
v 0.796875 0.203125 -0.210937
v -0.796875 0.203125 -0.210937
v 0.890625 0.242188 -0.265625
v -0.890625 0.242188 -0.265625
v 0.890625 0.234375 -0.320312
v -0.890625 0.234375 -0.320312
v 0.812500 -0.015625 -0.320312
v -0.812500 -0.015625 -0.320312
v 0.851562 0.015625 -0.320312
v -0.851562 0.015625 -0.320312
v 0.828125 0.078125 -0.320312
v -0.828125 0.078125 -0.320312
v 0.765625 0.093750 -0.320312
v -0.765625 0.093750 -0.320312
v 0.843750 0.171875 -0.320312
v -0.843750 0.171875 -0.320312
v 1.039062 0.328125 -0.414062
v -1.039062 0.328125 -0.414062
v 1.187500 0.343750 -0.484375
v -1.187500 0.343750 -0.484375
v 1.257812 0.242188 -0.492188
v -1.257812 0.242188 -0.492188
v 1.210938 0.085938 -0.484375
v -1.210938 0.085938 -0.484375
v 1.046875 0.000000 -0.421875
v -1.046875 0.000000 -0.421875
v 0.882812 -0.015625 -0.265625
v -0.882812 -0.015625 -0.265625
v 0.953125 0.289063 -0.343750
v -0.953125 0.289063 -0.343750
v 0.890625 0.109375 -0.328125
v -0.890625 0.109375 -0.328125
v 0.937500 0.062500 -0.335938
v -0.937500 0.062500 -0.335938
v 1.000000 0.125000 -0.367188
v -1.000000 0.125000 -0.367188
v 0.960938 0.171875 -0.351562
v -0.960938 0.171875 -0.351562
v 1.015625 0.234375 -0.375000
v -1.015625 0.234375 -0.375000
v 1.054688 0.187500 -0.382812
v -1.054688 0.187500 -0.382812
v 1.109375 0.210938 -0.390625
v -1.109375 0.210938 -0.390625
v 1.085938 0.273438 -0.390625
v -1.085938 0.273438 -0.390625
v 1.023438 0.437500 -0.484375
v -1.023438 0.437500 -0.484375
v 1.250000 0.468750 -0.546875
v -1.250000 0.468750 -0.546875
v 1.367188 0.296875 -0.500000
v -1.367188 0.296875 -0.500000
v 1.312500 0.054688 -0.531250
v -1.312500 0.054688 -0.531250
v 1.039062 -0.085937 -0.492188
v -1.039062 -0.085937 -0.492188
v 0.789062 -0.125000 -0.328125
v -0.789062 -0.125000 -0.328125
v 0.859375 0.382813 -0.382812
v -0.859375 0.382813 -0.382812
vt 0.472248 0.856582
vt 0.458792 0.842677
vt 0.473546 0.821180
vt 0.499792 0.847299
vt 0.715056 0.859528
vt 0.689237 0.869892
vt 0.680372 0.855450
vt 0.698417 0.831391
vt 0.491595 0.807822
vt 0.524121 0.840909
vt 0.742167 0.847902
vt 0.720353 0.812741
vt 0.890362 0.004822
vt 0.890736 0.040402
vt 0.867965 0.046959
vt 0.867998 0.000898
vt 0.742113 0.898476
vt 0.715154 0.898340
vt 0.438114 0.844174
vt 0.436615 0.821937
vt 0.689074 0.891767
vt 0.938581 0.894186
vt 0.941563 0.874834
vt 0.965641 0.874676
vt 0.959029 0.911658
vt 0.699270 0.924815
vt 0.680318 0.906024
vt 0.992085 0.875683
vt 0.983123 0.923752
vt 0.721709 0.933724
vt 0.960219 0.841459
vt 0.983641 0.833564
vt 0.148158 0.878633
vt 0.127860 0.868828
vt 0.127211 0.833008
vt 0.148191 0.834010
vt 0.938529 0.857649
vt 0.102328 0.859165
vt 0.102322 0.840403
vt 0.956527 0.713480
vt 0.955862 0.693038
vt 0.972236 0.690651
vt 0.973764 0.727209
vt 0.102988 0.897722
vt 0.088936 0.876166
vt 0.996505 0.686870
vt 0.996518 0.734537
vt 0.116957 0.917456
vt 0.971586 0.656836
vt 0.995712 0.643127
vt 0.073449 0.925971
vt 0.069639 0.904851
vt 0.438230 0.893993
vt 0.457433 0.893241
vt 0.472588 0.913302
vt 0.436552 0.914030
vt 0.071806 0.879803
vt 0.472782 0.878208
vt 0.498860 0.885474
vt 0.265788 0.881660
vt 0.287626 0.881086
vt 0.291869 0.900041
vt 0.273786 0.916009
vt 0.524237 0.890727
vt 0.489553 0.926445
vt 0.237588 0.881292
vt 0.247790 0.925712
vt 0.239693 0.833859
vt 0.266449 0.845077
vt 0.288399 0.860675
vt 0.534113 0.808440
vt 0.530149 0.826352
vt 0.525661 0.826794
vt 0.530146 0.807822
vt 0.290806 0.881557
vt 0.291873 0.859734
vt 0.534061 0.847446
vt 0.528315 0.850824
vt 0.946839 0.040241
vt 0.953472 0.039583
vt 0.961912 0.055521
vt 0.957939 0.057381
vt 0.956270 0.675474
vt 0.950832 0.693246
vt 0.950958 0.673094
vt 0.946647 0.017594
vt 0.952506 0.019351
vt 0.951779 0.716275
vt 0.956929 0.000301
vt 0.962015 0.004473
vt 0.032345 0.946842
vt 0.024574 0.965181
vt 0.019641 0.964242
vt 0.027536 0.943341
vt 0.378433 0.824768
vt 0.384350 0.824187
vt 0.387633 0.842266
vt 0.381972 0.845449
vt 0.032349 0.983432
vt 0.027290 0.985056
vt 0.381490 0.803449
vt 0.387663 0.805471
vt 0.742643 0.049436
vt 0.743962 0.029783
vt 0.748037 0.030453
vt 0.748086 0.052981
vt 0.069639 0.946125
vt 0.073731 0.946331
vt 0.080713 0.963798
vt 0.075824 0.965880
vt 0.743660 0.011175
vt 0.747701 0.010514
vt 0.077682 0.925971
vt 0.080690 0.927631
vt 0.775496 0.026838
vt 0.805910 0.017225
vt 0.805641 0.038264
vt 0.493293 0.929631
vt 0.502008 0.945564
vt 0.478348 0.957605
vt 0.788140 0.001511
vt 0.499347 0.970089
vt 0.766000 0.003772
vt 0.805910 0.000898
vt 0.823656 0.001758
vt 0.813047 0.028292
vt 0.750761 0.020109
vt 0.837894 0.017084
vt 0.750740 0.042712
vt 0.837776 0.041125
vt 0.766246 0.057381
vt 0.826170 0.057381
vt 0.790650 0.056164
vt 0.807823 0.057218
vt 0.478345 0.926445
vt 0.938271 0.178496
vt 0.918243 0.181644
vt 0.911776 0.149401
vt 0.928479 0.144683
vt 0.902831 0.113992
vt 0.921392 0.104401
vt 0.946623 0.204662
vt 0.919010 0.195385
vt 0.896994 0.098739
vt 0.915800 0.069357
vt 0.431337 0.615757
vt 0.397947 0.634151
vt 0.391824 0.614837
vt 0.422314 0.605314
vt 0.875134 0.091062
vt 0.903798 0.059482
vt 0.430439 0.660648
vt 0.396124 0.661402
vt 0.852968 0.091090
vt 0.866366 0.057381
vt 0.431266 0.721972
vt 0.394315 0.722210
vt 0.129918 0.738382
vt 0.088692 0.771744
vt 0.076785 0.734917
vt 0.121440 0.705813
vt 0.154888 0.339589
vt 0.197075 0.318718
vt 0.217322 0.340687
vt 0.178251 0.387012
vt 0.701123 0.747144
vt 0.742167 0.746844
vt 0.730430 0.801134
vt 0.667066 0.812741
vt 0.651642 0.052981
vt 0.615897 0.042727
vt 0.615960 0.012501
vt 0.651224 0.012552
vt 0.708358 0.689438
vt 0.737567 0.695146
vt 0.573967 0.371705
vt 0.606119 0.312735
vt 0.622396 0.348454
vt 0.594948 0.380219
vt 0.699845 0.649351
vt 0.742146 0.631360
vt 0.665959 0.310051
vt 0.659749 0.343426
vt 0.668569 0.627550
vt 0.679719 0.595793
vt 0.687106 0.341061
vt 0.670923 0.360638
vt 0.163514 0.670902
vt 0.160819 0.643211
vt 0.194703 0.640878
vt 0.182570 0.658044
vt 0.726352 0.386908
vt 0.715539 0.412961
vt 0.098471 0.676019
vt 0.103684 0.647841
vt 0.771852 0.419662
vt 0.744019 0.438281
vt 0.061044 0.677572
vt 0.047926 0.646539
vt 0.772716 0.457352
vt 0.745189 0.463285
vt 0.159594 0.913124
vt 0.191706 0.920948
vt 0.175175 0.951396
vt 0.148191 0.932951
vt 0.879002 0.294475
vt 0.882249 0.239029
vt 0.907121 0.234451
vt 0.905346 0.283978
vt 0.148282 0.863908
vt 0.173483 0.865830
vt 0.880912 0.218137
vt 0.901679 0.204662
vt 0.154703 0.833859
vt 0.174605 0.844985
vt 0.702531 0.471862
vt 0.709933 0.450131
vt 0.708846 0.491756
vt 0.573967 0.714829
vt 0.613023 0.720229
vt 0.612563 0.744539
vt 0.593823 0.757125
vt 0.707133 0.432184
vt 0.579454 0.689291
vt 0.618924 0.702918
vt 0.769433 0.651276
vt 0.744253 0.633751
vt 0.742229 0.595793
vt 0.772530 0.626187
vt 0.604843 0.673512
vt 0.633320 0.686008
vt 0.766789 0.693765
vt 0.742167 0.701355
vt 0.647299 0.635832
vt 0.660171 0.656651
vt 0.772211 0.712915
vt 0.753167 0.719655
vt 0.674838 0.657263
vt 0.624371 0.375059
vt 0.648339 0.366758
vt 0.687661 0.673060
vt 0.603714 0.410464
vt 0.692117 0.715273
vt 0.599778 0.439924
vt 0.584575 0.434571
vt 0.686105 0.745453
vt 0.627592 0.475462
vt 0.586788 0.508429
vt 0.633819 0.595793
vt 0.602237 0.559009
vt 0.652697 0.557654
vt 0.646125 0.591663
vt 0.640568 0.482049
vt 0.629705 0.516986
vt 0.660845 0.548435
vt 0.697683 0.513314
vt 0.680135 0.484017
vt 0.603147 0.786500
vt 0.625767 0.764989
vt 0.666489 0.513712
vt 0.658404 0.485955
vt 0.631306 0.801492
vt 0.639322 0.773998
vt 0.674819 0.539696
vt 0.895502 0.165044
vt 0.895130 0.151710
vt 0.889631 0.139272
vt 0.887874 0.175703
vt 0.876866 0.127380
vt 0.361427 0.663879
vt 0.361644 0.637024
vt 0.854334 0.125796
vt 0.362638 0.728061
vt 0.364104 0.670678
vt 0.315959 0.682523
vt 0.330541 0.735957
vt 0.307653 0.743529
vt 0.293413 0.686670
vt 0.848897 0.122673
vt 0.370486 0.763808
vt 0.351492 0.759158
vt 0.346589 0.732009
vt 0.335180 0.772494
vt 0.340300 0.678399
vt 0.337349 0.658616
vt 0.316491 0.674934
vt 0.019634 0.955126
vt 0.008606 0.957181
vt 0.011011 0.942600
vt 0.019554 0.938089
vt 0.255100 0.948480
vt 0.244377 0.938237
vt 0.252901 0.936043
vt 0.264634 0.948025
vt 0.675482 0.957613
vt 0.665386 0.957806
vt 0.670117 0.942236
vt 0.680291 0.943826
vt 0.420687 0.968763
vt 0.422704 0.947518
vt 0.431337 0.947862
vt 0.431067 0.965938
vt 0.680318 0.979555
vt 0.668496 0.973272
vt 0.047980 0.964965
vt 0.047672 0.950519
vt 0.057821 0.943341
vt 0.057818 0.964482
vt 0.289217 0.667253
vt 0.278417 0.668079
vt 0.278771 0.650319
vt 0.290288 0.656800
vt 0.293211 0.937623
vt 0.276531 0.933400
vt 0.275795 0.928390
vt 0.288573 0.925712
vt 0.019641 0.917120
vt 0.010922 0.919021
vt 0.272210 0.968875
vt 0.264021 0.971526
vt 0.258502 0.987983
vt 0.250418 0.984964
vt 0.255017 0.971249
vt 0.247582 0.952045
vt 0.271488 0.672468
vt 0.271464 0.655049
vt 0.287486 0.943513
vt 0.272221 0.937426
vt 0.740574 0.959038
vt 0.733567 0.958551
vt 0.734053 0.948316
vt 0.742167 0.943970
vt 0.414738 0.950739
vt 0.412181 0.942567
vt 0.418881 0.935982
vt 0.718150 0.941388
vt 0.721452 0.933724
vt 0.412220 0.966535
vt 0.001844 0.953709
vt 0.006911 0.944193
vt 0.239214 0.945734
vt 0.718166 0.965649
vt 0.287996 0.953414
vt 0.272210 0.960699
vt 0.237588 0.967130
vt 0.243183 0.991820
vt 0.771679 0.917662
vt 0.762698 0.937917
vt 0.742337 0.933996
vt 0.757133 0.891626
vt 0.591212 0.548486
vt 0.586717 0.527571
vt 0.766263 0.953153
vt 0.771615 0.963686
vt 0.574196 0.561988
vt 0.574728 0.557786
vt 0.379778 0.776050
vt 0.392455 0.754363
vt 0.391660 0.771339
vt 0.272131 0.927361
vt 0.261584 0.925712
vt 0.318632 0.772524
vt 0.426082 0.753855
vt 0.064602 0.788054
vt 0.049360 0.750419
vt 0.423413 0.769427
vt 0.051938 0.796579
vt 0.037171 0.759127
vt 0.418261 0.785222
vt 0.377038 0.803449
vt 0.040711 0.833008
vt 0.025364 0.770179
vt 0.864608 0.170898
vt 0.867076 0.150616
vt 0.870935 0.149342
vt 0.868972 0.167985
vt 0.860166 0.129326
vt 0.884239 0.170114
vt 0.945479 0.050623
vt 0.946610 0.057381
vt 0.928158 0.038728
vt 0.933856 0.037321
vt 0.893529 0.160240
vt 0.928950 0.021309
vt 0.934428 0.020795
vt 0.936572 0.009239
vt 0.945243 0.000481
vt 0.946647 0.005174
vt 0.939216 0.011736
vt 0.403077 0.935992
vt 0.402495 0.944535
vt 0.389032 0.944524
vt 0.389614 0.935982
vt 0.046173 0.953391
vt 0.036199 0.953589
vt 0.032349 0.943538
vt 0.042323 0.943341
vt 0.404763 0.961014
vt 0.388237 0.958872
vt 0.046098 0.967871
vt 0.032357 0.969739
vt 0.403339 0.975332
vt 0.389591 0.970870
vt 0.544825 0.949466
vt 0.547267 0.963589
vt 0.534130 0.963499
vt 0.534113 0.946861
vt 0.560163 0.971977
vt 0.560151 0.950717
vt 0.573955 0.946861
vt 0.573967 0.968120
vt 0.882568 0.143112
vt 0.871799 0.123096
vt 0.907705 0.025630
vt 0.890736 0.021482
vt 0.892558 0.011737
vt 0.914591 0.007295
vt 0.892535 0.031569
vt 0.914545 0.046959
vt 0.901242 0.003489
vt 0.387663 0.858363
vt 0.382169 0.871841
vt 0.382160 0.845449
vt 0.287812 0.575756
vt 0.290441 0.592347
vt 0.282006 0.592702
vt 0.278006 0.579995
vt 0.665486 0.555104
vt 0.678644 0.549893
vt 0.280623 0.559591
vt 0.271479 0.569337
vt 0.695584 0.534597
vt 0.696937 0.547803
vt 0.674728 0.475094
vt 0.690606 0.465101
vt 0.722808 0.538248
vt 0.716677 0.550454
vt 0.290438 0.606680
vt 0.279049 0.606188
vt 0.657091 0.566097
vt 0.282187 0.650319
vt 0.271464 0.641002
vt 0.672646 0.740908
vt 0.660368 0.772674
vt 0.651936 0.766901
vt 0.612845 0.417112
vt 0.609847 0.442157
vt 0.677338 0.715010
vt 0.628556 0.387723
vt 0.678291 0.682483
vt 0.649321 0.382625
vt 0.665500 0.670260
vt 0.668316 0.372764
vt 0.664894 0.385317
vt 0.010918 0.857646
vt 0.003074 0.852778
vt 0.007957 0.833008
vt 0.015624 0.843418
vt 0.692322 0.410810
vt 0.683037 0.420436
vt 0.019641 0.893191
vt 0.004429 0.893494
vt 0.695718 0.434580
vt 0.011022 0.909798
vt 0.003113 0.917120
vt 0.697553 0.449366
vt 0.731348 0.560009
vt 0.740832 0.551291
vt 0.747687 0.564956
vt 0.737238 0.570513
vt 0.685966 0.458432
vt 0.691850 0.448000
vt 0.971872 0.367739
vt 0.965041 0.372700
vt 0.960230 0.354876
vt 0.965137 0.354837
vt 0.690498 0.434794
vt 0.962518 0.340048
vt 0.967365 0.341660
vt 0.876672 0.932540
vt 0.888682 0.914255
vt 0.891678 0.918392
vt 0.882578 0.933886
vt 0.964766 0.325585
vt 0.970227 0.326536
vt 0.876126 0.968132
vt 0.884120 0.966304
vt 0.987271 0.295381
vt 0.992212 0.302440
vt 0.878644 0.982283
vt 0.886126 0.979236
vt 0.293323 0.552914
vt 0.287227 0.559591
vt 0.277924 0.548625
vt 0.284753 0.543613
vt 0.887258 0.996091
vt 0.891744 0.988908
vt 0.271464 0.527786
vt 0.279599 0.527832
vt 0.634172 0.392425
vt 0.617619 0.417765
vt 0.276971 0.497694
vt 0.283112 0.499282
vt 0.615436 0.439281
vt 0.289397 0.479118
vt 0.293383 0.483978
vt 0.629089 0.474421
vt 0.632055 0.467864
vt 0.960263 0.398447
vt 0.965065 0.394798
vt 0.973115 0.427124
vt 0.966757 0.426738
vt 0.642312 0.479234
vt 0.645278 0.472678
vt 0.969296 0.441170
vt 0.962939 0.440783
vt 0.674132 0.469272
vt 0.980585 0.381531
vt 0.976069 0.386225
vt 0.657402 0.480346
vt 0.658227 0.471689
vt 0.992194 0.387297
vt 0.987280 0.394798
vt 0.968068 0.454915
vt 0.960230 0.451689
vt 0.851659 0.239134
vt 0.848897 0.212568
vt 0.069567 0.861905
vt 0.034251 0.859087
vt 0.036739 0.838666
vt 0.067897 0.833008
vt 0.848983 0.289137
vt 0.056441 0.904337
vt 0.019641 0.905974
vt 0.829786 0.310051
vt 0.806735 0.289884
vt 0.829875 0.260879
vt 0.848862 0.280058
vt 0.069639 0.935064
vt 0.033200 0.943341
vt 0.790224 0.236606
vt 0.815329 0.215350
vt 0.118044 0.620974
vt 0.070335 0.619675
vt 0.768134 0.180721
vt 0.796705 0.165139
vt 0.168912 0.615112
vt 0.750740 0.147811
vt 0.784181 0.137843
vt 0.196669 0.612037
vt 0.786803 0.092928
vt 0.807439 0.094926
vt 0.973956 0.126742
vt 0.955502 0.118837
vt 0.974349 0.057381
vt 0.995519 0.075956
vt 0.293347 0.255864
vt 0.244198 0.302266
vt 0.232276 0.273305
vt 0.279628 0.241727
vt 0.971296 0.180245
vt 0.946647 0.177913
vt 0.197489 0.300883
vt 0.975820 0.219216
vt 0.961870 0.225311
vt 0.044635 0.334821
vt 0.052749 0.318055
vt 0.089911 0.298753
vt 0.073430 0.334826
vt 0.291542 0.707522
vt 0.282041 0.747032
vt 0.260179 0.749511
vt 0.258759 0.718005
vt 0.206763 0.764225
vt 0.269541 0.769018
vt 0.221410 0.787285
vt 0.209281 0.729896
vt 0.160121 0.765444
vt 0.175836 0.798904
vt 0.161685 0.731949
vt 0.991595 0.610973
vt 0.985811 0.643127
vt 0.959036 0.636810
vt 0.963839 0.604470
vt 0.946647 0.131914
vt 0.937759 0.094097
vt 0.993650 0.582110
vt 0.965073 0.571464
vt 0.705460 0.943500
vt 0.705447 0.971746
vt 0.682166 0.964164
vt 0.680318 0.933724
vt 0.997819 0.566922
vt 0.958933 0.542355
vt 0.164417 0.699950
vt 0.148191 0.690247
vt 0.157978 0.677572
vt 0.212045 0.694720
vt 0.388237 0.839269
vt 0.397104 0.803449
vt 0.431337 0.825211
vt 0.431283 0.863314
vt 0.090379 0.677657
vt 0.148191 0.678321
vt 0.054294 0.703729
vt 0.236978 0.812687
vt 0.281208 0.788707
vt 0.259645 0.686681
vt 0.192718 0.833859
vt 0.122076 0.321620
vt 0.102547 0.332408
vt 0.291873 0.677634
vt 0.388484 0.883509
vt 0.427603 0.889521
vt 0.031539 0.722512
vt 0.396963 0.908442
vt 0.424335 0.904918
vt 0.417454 0.918577
vt 0.399217 0.921207
vt 0.018595 0.748511
vt 0.022305 0.735296
vt 0.401327 0.935982
vt 0.411945 0.931367
vt 0.013742 0.760307
vt 0.150968 0.324854
vt 0.995722 0.266566
vt 0.986279 0.266981
vt 0.021623 0.028995
vt 0.090949 0.051354
vt 0.076242 0.097555
vt 0.000000 0.088309
vt 0.488790 0.528813
vt 0.463735 0.480456
vt 0.524998 0.416681
vt 0.559820 0.477814
vt 0.072375 0.173441
vt 0.005195 0.174483
vt 0.508625 0.579869
vt 0.573286 0.543916
vt 0.089194 0.275367
vt 0.046868 0.295953
vt 0.666161 0.259383
vt 0.750740 0.241991
vt 0.746338 0.310051
vt 0.648462 0.308659
vt 0.647141 0.266441
vt 0.632377 0.309796
vt 0.131530 0.320231
vt 0.000000 0.677572
vt 0.014383 0.696078
vt 0.214236 0.199983
vt 0.271089 0.163970
vt 0.700929 0.114215
vt 0.616844 0.124949
vt 0.625008 0.070302
vt 0.688231 0.052981
vt 0.446396 0.332480
vt 0.534443 0.310083
vt 0.573967 0.393944
vt 0.383195 0.428785
vt 0.293438 0.128022
vt 0.357044 0.051228
vt 0.390317 0.096621
vt 0.334774 0.182633
vt 0.084453 0.453414
vt 0.080562 0.527766
vt 0.000000 0.533971
vt 0.006095 0.444935
vt 0.445949 0.141554
vt 0.417045 0.250122
vt 0.349045 0.310051
vt 0.293413 0.265118
vt 0.558936 0.181995
vt 0.512750 0.290800
vt 0.297823 0.391506
vt 0.375778 0.310051
vt 0.817076 0.133403
vt 0.840687 0.147444
vt 0.192981 0.583294
vt 0.173686 0.567072
vt 0.801163 0.396257
vt 0.790104 0.379232
vt 0.841005 0.353190
vt 0.872231 0.387077
vt 0.188949 0.525214
vt 0.144905 0.498572
vt 0.426044 0.040922
vt 0.453558 0.000000
vt 0.481124 0.035997
vt 0.455943 0.077972
vt 0.193311 0.466626
vt 0.151048 0.438756
vt 0.528715 0.070482
vt 0.503511 0.113687
vt 0.220421 0.417216
vt 0.177263 0.387038
vt 0.578990 0.083138
vt 0.574807 0.134582
vt 0.300784 0.439920
vt 0.369101 0.479851
vt 0.345749 0.526557
vt 0.293413 0.492756
vt 0.112873 0.387012
vt 0.888374 0.451818
vt 0.802145 0.450341
vt 0.126892 0.594693
vt 0.841295 0.199560
vt 0.789101 0.562807
vt 0.881028 0.554443
vt 0.859445 0.641337
vt 0.772716 0.643127
vt 0.958969 0.456490
vt 1.000000 0.481292
vt 0.997371 0.513179
vt 0.958933 0.541902
vt 0.941550 0.229164
vt 0.943805 0.257234
vt 0.907200 0.294475
vt 0.907121 0.215937
vt 0.742245 0.891626
vt 0.742167 0.818061
vt 0.771679 0.825859
vt 0.757330 0.887300
vt 0.073540 0.637403
vt 0.040260 0.620296
vt 0.709437 0.024009
vt 0.716745 0.047349
vt 0.682544 0.052981
vt 0.682588 0.016128
vt 0.848897 0.057381
vt 0.257518 0.532332
vt 0.239433 0.609174
vt 0.773111 0.316540
vt 0.799205 0.310051
vt 0.249753 0.503459
vt 0.522173 0.010726
vt 0.539922 0.040900
vt 0.251286 0.467306
vt 0.830229 0.914255
vt 0.876126 0.935925
vt 0.876093 0.991275
vt 0.835226 0.971020
vt 0.268095 0.418281
vt 0.115903 0.167895
vt 0.150287 0.242345
vt 0.741381 0.199165
vt 0.666745 0.192101
vt 0.157332 0.164068
vt 0.740942 0.157161
vt 0.599673 0.167911
vt 0.141629 0.323366
vt 0.604598 0.236508
vt 0.591031 0.229436
vt 0.974549 0.057381
vt 0.962015 0.004063
vt 0.974670 0.002818
vt 0.578990 0.222542
vt 0.214570 0.060249
vt 0.155458 0.094481
vt 0.122558 0.073078
vt 0.182960 0.029154
vt 0.438250 0.517557
vt 0.411483 0.555665
vt 0.160896 0.000000
vt 0.464931 0.583508
vt 0.424127 0.598092
vt 0.469617 0.775889
vt 0.444693 0.744499
vt 0.454536 0.735892
vt 0.472796 0.760358
vt 0.915120 0.024026
vt 0.928158 0.028161
vt 0.924864 0.057381
vt 0.915147 0.045144
vt 0.512187 0.786990
vt 0.516492 0.807822
vt 0.716681 0.938375
vt 0.718150 0.974956
vt 0.705575 0.975592
vt 0.705585 0.933724
vt 0.544402 0.763523
vt 0.559266 0.777975
vt 0.547741 0.899450
vt 0.569878 0.927353
vt 0.568022 0.946860
vt 0.534113 0.912685
vt 0.555813 0.715477
vt 0.573967 0.718010
vt 0.546840 0.847981
vt 0.534160 0.847858
vt 0.524739 0.668771
vt 0.534699 0.658345
vt 0.917062 0.568722
vt 0.919928 0.514296
vt 0.928077 0.500021
vt 0.930564 0.571051
vt 0.474461 0.632256
vt 0.470471 0.612764
vt 0.888451 0.624979
vt 0.896928 0.643127
vt 0.527110 0.682678
vt 0.486472 0.652718
vt 0.453034 0.972444
vt 0.450489 0.926445
vt 0.463144 0.937656
vt 0.463191 0.990955
vt 0.750407 0.765874
vt 0.760480 0.763937
vt 0.754919 0.806147
vt 0.742177 0.818060
vt 0.572328 0.817894
vt 0.556853 0.850313
vt 0.564569 0.807822
vt 0.742167 0.719655
vt 0.753945 0.728824
vt 0.556248 0.888883
vt 0.646635 0.942236
vt 0.661664 0.955732
vt 0.660301 0.983700
vt 0.646642 0.979506
vt 0.573967 0.909140
vt 0.487283 0.752201
vt 0.521030 0.773446
vt 0.314645 0.812645
vt 0.319234 0.852151
vt 0.298131 0.862243
vt 0.293484 0.814900
vt 0.470455 0.732191
vt 0.322728 0.877397
vt 0.305626 0.890728
vt 0.191314 0.147209
vt 0.205749 0.165988
vt 0.744545 0.119434
vt 0.723208 0.112348
vt 0.436552 0.605314
vt 0.451095 0.636749
vt 0.578990 0.052981
vt 0.579009 0.032276
vt 0.615897 0.011992
vt 0.607638 0.047743
vt 0.274407 0.133698
vt 0.293413 0.468990
vt 0.271464 0.479118
vt 0.271510 0.406966
vt 0.288585 0.387012
vt 0.436597 0.720227
vt 0.445934 0.714582
vt 0.917383 0.000153
vt 0.925530 0.004601
vt 0.115816 0.981074
vt 0.118504 0.970941
vt 0.140755 0.972378
vt 0.141132 0.996371
vt 0.436552 0.966881
vt 0.437843 0.996485
vt 0.936878 0.333944
vt 0.919535 0.302500
vt 0.933010 0.295381
vt 0.940662 0.325380
vt 0.477205 0.971782
vt 0.468343 0.971215
vt 0.463191 0.935729
vt 0.472707 0.939663
vt 0.911753 0.324383
vt 0.919413 0.335515
vt 0.742643 0.020180
vt 0.742625 0.052981
vt 0.723766 0.039776
vt 0.730241 0.030939
vt 0.227876 0.101593
vt 0.231843 0.113282
vt 0.198461 0.137712
vt 0.204130 0.112553
vt 0.373004 0.938850
vt 0.341810 0.918174
vt 0.352488 0.902558
vt 0.372498 0.918754
vt 0.445742 0.693100
vt 0.461655 0.694830
vt 0.464410 0.713025
vt 0.323216 0.907879
vt 0.334743 0.892059
vt 0.251509 0.102830
vt 0.253815 0.101566
vt 0.262011 0.468389
vt 0.269549 0.474025
vt 0.362362 0.953970
vt 0.293413 0.926874
vt 0.228115 0.833859
vt 0.237588 0.842129
vt 0.228102 0.863156
vt 0.262849 0.080627
vt 0.247426 0.094018
vt 0.241015 0.083257
vt 0.256645 0.070319
vt 0.343782 0.884686
vt 0.332401 0.868636
vt 0.224601 0.091383
vt 0.358423 0.894635
vt 0.200855 0.102343
vt 0.378433 0.910831
vt 0.682730 0.016103
vt 0.682544 0.002001
vt 0.692919 0.001283
vt 0.692186 0.016128
vt 0.724377 0.021299
vt 0.716745 0.030999
vt 0.937805 0.340789
vt 0.922032 0.341694
vt 0.735623 0.011403
vt 0.579181 0.010881
vt 0.578990 0.000422
vt 0.589880 0.000221
vt 0.589845 0.011992
vt 0.477227 0.931627
vt 0.466628 0.926445
vt 0.127163 0.964777
vt 0.148191 0.966083
vt 0.656291 0.827125
vt 0.646760 0.822423
vt 0.659562 0.812741
vt 0.668631 0.816303
vt 0.274328 0.058709
vt 0.269415 0.048081
vt 0.328224 0.841885
vt 0.293413 0.034580
vt 0.289262 0.025600
vt 0.322533 0.803449
vt 0.514073 0.953776
vt 0.502008 0.926445
vt 0.510448 0.929062
vt 0.524237 0.954869
vt 0.058731 0.948538
vt 0.069639 0.943341
vt 0.069229 0.972115
vt 0.057821 0.977308
vt 0.502043 0.988244
vt 0.511295 0.989598
vt 0.656164 0.942236
vt 0.646635 0.934228
vt 0.668761 0.913325
vt 0.676779 0.920740
vt 0.767878 0.759850
vt 0.766736 0.801858
vt 0.669934 0.869218
vt 0.680318 0.875038
vt 0.115789 0.934277
vt 0.123092 0.925971
vt 0.935919 0.362799
vt 0.921262 0.357052
vt 0.960716 0.766262
vt 0.966081 0.745894
vt 0.978418 0.754295
vt 0.973734 0.768695
vt 0.928471 0.383507
vt 0.914530 0.378340
vt 0.962922 0.785734
vt 0.973850 0.789527
vt 0.920218 0.400951
vt 0.906306 0.396678
vt 0.964646 0.804624
vt 0.976432 0.808158
vt 0.920393 0.414168
vt 0.904620 0.415073
vt 0.960115 0.816460
vt 0.972452 0.824861
vt 0.888392 0.413572
vt 0.888374 0.385963
vt 0.990424 0.810631
vt 0.989978 0.827716
vt 0.894160 0.366816
vt 0.340570 0.853133
vt 0.352585 0.867795
vt 0.903220 0.352638
vt 0.988911 0.774053
vt 0.990155 0.792362
vt 0.912681 0.331228
vt 0.990439 0.748414
vt 0.964935 0.294592
vt 0.946647 0.295006
vt 0.946651 0.266981
vt 0.957701 0.285534
vt 0.950832 0.746266
vt 0.967925 0.734537
vt 0.960230 0.387963
vt 0.947345 0.337758
vt 0.202176 0.926813
vt 0.199253 0.906246
vt 0.227878 0.903815
vt 0.200116 0.949494
vt 0.957524 0.433422
vt 0.193370 0.888295
vt 0.227910 0.857816
vt 0.928191 0.456490
vt 0.191706 0.874217
vt 0.206902 0.833859
vt 0.899452 0.450981
vt 0.682544 0.042569
vt 0.669127 0.049230
vt 0.657923 0.024764
vt 0.682532 0.009091
vt 0.931295 0.771810
vt 0.950796 0.833564
vt 0.908444 0.812087
vt 0.896056 0.755792
vt 0.932674 0.625935
vt 0.958933 0.559572
vt 0.935205 0.702058
vt 0.915881 0.689226
vt 0.947207 0.487149
vt 0.950832 0.647836
vt 0.934543 0.643127
vt 0.888374 0.462578
vt 0.906453 0.456490
vt 0.897775 0.917074
vt 0.896056 0.869807
vt 0.911255 0.858959
vt 0.923249 0.901211
vt 0.867937 0.053932
vt 0.848780 0.051662
vt 0.837894 0.000898
vt 0.867965 0.003514
vt 0.901800 0.957875
vt 0.938354 0.942003
vt 0.797675 0.914255
vt 0.772716 0.896319
vt 0.777274 0.839855
vt 0.811234 0.860706
vt 0.772771 0.953946
vt 0.779125 0.918041
vt 0.818698 0.914255
vt 0.808896 0.953046
vt 0.786142 0.801659
vt 0.816586 0.813804
vt 0.896056 0.723908
vt 0.774883 0.714392
vt 0.888107 0.677106
vt 0.888948 0.778303
vt 0.888888 0.849684
vt 0.894645 0.778204
vt 0.795886 0.778303
vt 0.589970 0.908303
vt 0.602847 0.812741
vt 0.642964 0.826913
vt 0.642978 0.947703
vt 0.938529 0.833564
vt 0.573967 0.852462
vt 0.830229 0.982701
vt 0.772716 0.979795
vt 0.798565 0.781550
vt 0.850209 0.800478
vt 0.250352 0.056629
vt 0.173625 0.121435
vt 0.400765 0.605314
vt 0.309746 0.524160
vt 0.084396 0.944480
vt 0.115704 0.925971
vt 0.115789 0.973867
vt 0.080883 0.986508
vt 0.938529 0.953736
vt 0.978376 0.923752
vt 0.978415 0.991743
vt 0.946910 1.001198
usemtl Fur
s off
f 47/1 1/2 3/3 45/4
f 4/5 2/6 48/7 46/8
f 45/4 3/3 5/9 43/10
f 6/11 4/5 46/8 44/12
f 3/13 9/14 7/15 5/16
f 8/17 10/18 4/5 6/11
f 1/2 11/19 9/20 3/3
f 10/18 12/21 2/6 4/5
f 11/22 13/23 15/24 9/25
f 16/26 14/27 12/21 10/18
f 9/25 15/24 17/28 7/29
f 18/30 16/26 10/18 8/17
f 15/24 21/31 19/32 17/28
f 20/33 22/34 16/35 18/36
f 13/23 23/37 21/31 15/24
f 22/34 24/38 14/39 16/35
f 23/40 25/41 27/42 21/43
f 28/44 26/45 24/38 22/34
f 21/43 27/42 29/46 19/47
f 30/48 28/44 22/34 20/33
f 27/42 33/49 31/50 29/46
f 32/51 34/52 28/44 30/48
f 25/53 35/54 33/55 27/56
f 34/52 36/57 26/45 28/44
f 35/54 37/58 39/59 33/55
f 40/60 38/61 36/62 34/63
f 33/55 39/59 41/64 31/65
f 42/66 40/60 34/63 32/67
f 39/59 45/4 43/10 41/64
f 44/68 46/69 40/60 42/66
f 37/58 47/1 45/4 39/59
f 46/69 48/70 38/61 40/60
f 47/71 37/72 51/73 49/74
f 52/75 38/61 48/70 50/76
f 37/72 35/77 53/78 51/73
f 54/79 36/80 38/81 52/82
f 35/83 25/41 55/84 53/85
f 56/86 26/87 36/80 54/79
f 25/41 23/40 57/88 55/84
f 58/89 24/90 26/87 56/86
f 23/91 13/92 59/93 57/94
f 60/95 14/96 24/97 58/98
f 13/92 11/99 63/100 59/93
f 64/101 12/102 14/96 60/95
f 11/103 1/104 65/105 63/106
f 66/107 2/108 12/109 64/110
f 1/104 47/111 49/112 65/105
f 50/113 48/114 2/108 66/107
f 61/115 65/116 49/117
f 50/118 66/119 62/120
f 63/121 65/116 61/115
f 62/120 66/119 64/122
f 61/115 59/123 63/121
f 64/124 60/125 62/126
f 61/115 57/127 59/123
f 60/125 58/128 62/126
f 61/115 55/129 57/127
f 58/128 56/130 62/126
f 61/115 53/131 55/129
f 56/130 54/132 62/126
f 61/115 51/133 53/131
f 54/132 52/134 62/126
f 61/115 49/117 51/133
f 52/135 50/118 62/120
f 89/136 174/137 176/138 91/139
f 176/138 175/140 90/141 91/139
f 87/142 172/143 174/137 89/136
f 175/140 173/144 88/145 90/141
f 85/146 170/147 172/148 87/149
f 173/144 171/150 86/151 88/145
f 83/152 168/153 170/147 85/146
f 171/150 169/154 84/155 86/151
f 81/156 166/157 168/153 83/152
f 169/158 167/159 82/160 84/161
f 79/162 92/163 146/164 164/165
f 147/166 93/167 80/168 165/169
f 92/170 94/171 148/172 146/173
f 149/174 95/175 93/167 147/166
f 94/176 96/177 150/178 148/179
f 151/180 97/181 95/175 149/174
f 96/177 98/182 152/183 150/178
f 153/184 99/185 97/181 151/180
f 98/182 100/186 154/187 152/183
f 155/188 101/189 99/190 153/191
f 100/186 102/192 156/193 154/187
f 157/194 103/195 101/189 155/188
f 102/192 104/196 158/197 156/193
f 159/198 105/199 103/195 157/194
f 104/196 106/200 160/201 158/197
f 161/202 107/203 105/204 159/205
f 106/206 108/207 162/208 160/209
f 163/210 109/211 107/203 161/202
f 108/207 67/212 68/213 162/208
f 68/214 67/215 109/211 163/210
f 110/216 128/217 160/201 162/218
f 161/219 129/220 111/221 163/222
f 128/217 179/223 158/197 160/201
f 159/224 180/225 129/220 161/219
f 126/226 156/227 158/228 179/229
f 159/224 157/230 127/231 180/225
f 124/232 154/233 156/227 126/226
f 157/230 155/234 125/235 127/231
f 122/236 152/237 154/233 124/232
f 155/234 153/184 123/238 125/235
f 120/239 150/178 152/183 122/240
f 153/184 151/180 121/241 123/238
f 118/242 148/179 150/178 120/239
f 151/180 149/174 119/243 121/241
f 116/244 146/245 148/179 118/242
f 149/174 147/166 117/246 119/243
f 114/247 164/248 146/245 116/244
f 147/249 165/250 115/251 117/252
f 114/247 181/253 177/254 164/248
f 177/254 182/255 115/251 165/250
f 110/216 162/218 68/256 112/257
f 68/258 163/222 111/221 113/259
f 112/257 68/256 178/260 183/261
f 178/262 68/258 113/259 184/263
f 177/254 181/253 183/261 178/260
f 184/264 182/255 177/254 178/260
f 135/265 137/266 176/138 174/137
f 176/138 137/266 136/267 175/140
f 133/268 135/265 174/137 172/143
f 175/140 136/267 134/269 173/144
f 131/270 133/271 172/148 170/147
f 173/144 134/269 132/272 171/150
f 166/157 187/273 185/274 168/153
f 186/275 188/276 167/277 169/278
f 131/270 170/147 168/153 185/274
f 169/154 171/150 132/272 186/279
f 144/280 190/281 189/282 187/273
f 189/282 190/281 145/283 188/276
f 185/274 187/273 189/282 69/284
f 189/282 188/276 186/275 69/284
f 130/285 131/270 185/274 69/284
f 186/275 132/286 130/285 69/284
f 142/287 193/288 191/289 144/290
f 192/291 194/292 143/293 145/294
f 140/295 195/296 193/297 142/298
f 194/299 196/300 141/301 143/302
f 139/303 197/304 195/296 140/295
f 196/305 198/306 139/307 141/308
f 138/309 71/310 197/311 139/312
f 198/313 71/314 138/315 139/316
f 190/317 144/290 191/289 70/318
f 192/291 145/294 190/319 70/320
f 70/320 191/321 206/322 208/323
f 207/324 192/291 70/320 208/323
f 71/310 199/325 200/326 197/311
f 201/327 199/328 71/314 198/313
f 197/329 200/330 202/331 195/332
f 203/333 201/334 198/335 196/300
f 195/332 202/331 204/336 193/337
f 205/338 203/333 196/300 194/299
f 193/288 204/339 206/340 191/289
f 207/324 205/341 194/292 192/291
f 199/342 204/336 202/331 200/330
f 203/343 205/344 199/328 201/327
f 199/345 208/323 206/322 204/346
f 207/324 208/323 199/345 205/341
f 139/347 140/348 164/349 177/350
f 165/250 141/351 139/352 177/254
f 140/348 142/353 211/354 164/349
f 212/355 143/356 141/351 165/250
f 142/357 144/280 213/358 211/359
f 214/360 145/294 143/293 212/361
f 144/280 187/273 166/157 213/358
f 167/277 188/276 145/283 214/362
f 81/156 209/363 213/358 166/157
f 214/364 210/365 82/160 167/159
f 209/363 215/366 211/359 213/358
f 212/367 216/368 210/365 214/364
f 79/369 164/370 211/359 215/366
f 212/367 165/371 80/372 216/368
f 131/373 130/374 72/375 222/376
f 72/375 130/374 132/272 223/377
f 133/268 131/373 222/376 220/378
f 223/379 132/380 134/381 221/382
f 135/265 133/268 220/378 218/383
f 221/382 134/381 136/384 219/385
f 137/386 135/387 218/388 217/389
f 219/385 136/384 137/386 217/389
f 217/390 218/391 229/392 231/393
f 230/394 219/395 217/396 231/397
f 218/391 220/398 227/399 229/392
f 228/400 221/401 219/395 230/394
f 220/398 222/402 225/403 227/399
f 226/404 223/405 221/406 228/407
f 222/408 72/409 224/410 225/411
f 224/412 72/375 223/377 226/413
f 224/414 231/415 229/416 225/417
f 230/418 231/415 224/414 226/419
f 225/417 229/416 227/420
f 228/421 230/422 226/423
f 183/424 181/425 234/426 232/427
f 235/428 182/255 184/264 233/429
f 112/430 183/424 232/427 254/431
f 233/429 184/264 113/432 255/433
f 110/216 112/257 254/434 256/435
f 255/433 113/432 111/436 257/437
f 181/425 114/438 252/439 234/426
f 253/440 115/251 182/255 235/428
f 114/438 116/441 250/442 252/439
f 251/443 117/246 115/444 253/445
f 116/244 118/242 248/446 250/447
f 249/448 119/243 117/246 251/443
f 118/242 120/239 246/449 248/446
f 247/450 121/241 119/243 249/448
f 120/239 122/240 244/451 246/449
f 245/452 123/238 121/241 247/450
f 122/240 124/453 242/454 244/451
f 243/455 125/456 123/457 245/458
f 124/453 126/459 240/460 242/454
f 241/461 127/462 125/456 243/455
f 126/459 179/223 236/463 240/460
f 237/464 180/465 127/462 241/461
f 179/223 128/217 238/466 236/463
f 239/467 129/468 180/469 237/470
f 128/217 110/216 256/435 238/466
f 257/437 111/436 129/468 239/467
f 238/466 256/435 258/471 276/472
f 259/473 257/474 239/475 277/476
f 236/463 238/466 276/472 278/477
f 277/476 239/475 237/478 279/479
f 240/480 236/481 278/482 274/483
f 279/479 237/478 241/484 275/485
f 242/486 240/480 274/483 272/487
f 275/485 241/484 243/488 273/489
f 244/490 242/486 272/487 270/491
f 273/492 243/493 245/494 271/495
f 246/496 244/490 270/491 268/497
f 271/495 245/494 247/498 269/499
f 248/446 246/449 268/500 266/501
f 269/499 247/498 249/502 267/503
f 250/447 248/446 266/501 264/504
f 267/503 249/502 251/505 265/506
f 252/507 250/447 264/504 262/508
f 265/509 251/510 253/511 263/512
f 234/513 252/507 262/508 280/514
f 263/512 253/511 235/515 281/516
f 256/435 254/434 260/517 258/471
f 261/518 255/519 257/474 259/473
f 254/434 232/520 282/521 260/517
f 283/522 233/523 255/519 261/518
f 232/520 234/513 280/514 282/521
f 281/516 235/515 233/524 283/525
f 67/212 108/207 284/526 73/527
f 285/528 109/529 67/530 73/531
f 108/207 106/206 286/532 284/526
f 287/533 107/534 109/529 285/528
f 106/535 104/536 288/537 286/538
f 289/539 105/540 107/534 287/533
f 104/536 102/541 290/542 288/537
f 291/543 103/195 105/199 289/544
f 102/541 100/545 292/546 290/542
f 293/547 101/189 103/195 291/543
f 100/545 98/548 294/549 292/546
f 295/550 99/190 101/189 293/547
f 98/548 96/551 296/552 294/549
f 297/553 97/554 99/555 295/556
f 96/557 94/558 298/559 296/560
f 299/561 95/562 97/554 297/553
f 94/558 92/163 300/563 298/559
f 301/564 93/565 95/562 299/561
f 308/566 309/567 328/568 338/569
f 329/570 309/571 308/572 339/573
f 307/574 308/572 338/575 336/576
f 339/573 308/572 307/574 337/577
f 306/578 307/574 336/576 340/579
f 337/577 307/574 306/578 341/580
f 89/581 91/582 306/583 340/584
f 306/585 91/139 90/141 341/586
f 87/587 89/581 340/584 334/588
f 341/589 90/590 88/591 335/592
f 85/593 87/587 334/588 330/594
f 335/595 88/596 86/597 331/598
f 83/599 85/600 330/601 332/602
f 331/603 86/604 84/161 333/605
f 330/606 336/576 338/575 332/607
f 339/573 337/577 331/598 333/608
f 330/606 334/609 340/579 336/576
f 341/580 335/595 331/598 337/577
f 326/610 332/611 338/569 328/568
f 339/573 333/608 327/612 329/570
f 81/613 83/599 332/602 326/614
f 333/605 84/161 82/160 327/615
f 209/616 342/617 344/618 215/619
f 345/620 343/621 210/365 216/368
f 81/613 326/614 342/617 209/616
f 343/621 327/615 82/160 210/365
f 79/622 215/619 344/618 346/623
f 345/620 216/368 80/372 347/624
f 79/162 346/625 300/563 92/163
f 301/564 347/626 80/627 93/565
f 77/628 324/629 352/630 304/631
f 353/632 325/633 77/634 304/635
f 304/631 352/630 350/636 78/637
f 351/638 353/632 304/635 78/639
f 78/637 350/636 348/640 305/641
f 349/642 351/643 78/644 305/645
f 305/641 348/640 328/568 309/567
f 329/646 349/642 305/645 309/647
f 326/610 328/568 348/640 342/648
f 349/649 329/650 327/615 343/621
f 296/560 298/559 318/651 310/652
f 319/653 299/654 297/655 311/656
f 76/657 316/658 324/659 77/634
f 325/633 317/660 76/657 77/634
f 302/661 358/662 356/663 303/664
f 357/665 359/666 302/667 303/668
f 303/664 356/663 354/669 75/670
f 355/671 357/672 303/664 75/670
f 75/670 354/669 316/673 76/674
f 317/660 355/675 75/676 76/657
f 292/546 294/549 362/677 364/678
f 363/679 295/550 293/547 365/680
f 364/681 362/682 368/683 366/684
f 369/685 363/679 365/680 367/686
f 366/687 368/688 370/689 372/690
f 371/691 369/685 367/686 373/692
f 372/690 370/689 376/693 374/694
f 377/695 371/691 373/692 375/696
f 314/697 378/698 374/694 376/693
f 375/699 379/700 315/701 377/702
f 316/673 354/669 374/694 378/698
f 375/699 355/675 317/660 379/700
f 354/669 356/663 372/690 374/694
f 373/692 357/665 355/703 375/696
f 356/663 358/662 366/687 372/690
f 367/686 359/666 357/665 373/692
f 358/704 360/705 364/681 366/684
f 365/680 361/706 359/666 367/686
f 290/542 292/546 364/678 360/707
f 365/680 293/547 291/543 361/706
f 74/708 360/705 358/704 302/709
f 359/710 361/711 74/708 302/709
f 284/712 286/713 288/714 290/715
f 289/716 287/717 285/718 291/719
f 284/720 290/721 360/722 74/723
f 361/706 291/543 285/724 74/725
f 73/726 284/727 74/728
f 74/728 285/729 73/726
f 294/549 296/552 310/730 362/677
f 311/731 297/732 295/550 363/679
f 310/733 312/734 368/683 362/682
f 369/685 313/735 311/731 363/679
f 312/736 382/737 370/689 368/688
f 371/691 383/738 313/735 369/685
f 314/739 376/740 370/741 382/742
f 371/691 377/695 315/743 383/738
f 348/640 350/636 386/744 384/745
f 387/746 351/643 349/642 385/747
f 318/651 384/745 386/744 320/748
f 387/746 385/747 319/653 321/749
f 298/559 300/563 384/745 318/651
f 385/747 301/750 299/654 319/653
f 300/563 344/751 342/648 384/745
f 343/752 345/753 301/750 385/747
f 342/648 348/640 384/745
f 385/747 349/642 343/752
f 300/754 346/755 344/756
f 345/753 347/757 301/750
f 314/758 322/759 380/760 378/761
f 381/762 323/763 315/701 379/700
f 316/764 378/761 380/760 324/629
f 381/762 379/700 317/660 325/633
f 320/748 386/744 380/760 322/759
f 381/762 387/765 321/766 323/763
f 350/636 352/630 380/760 386/744
f 381/762 353/632 351/638 387/765
f 324/629 380/760 352/630
f 353/632 381/762 325/633
f 400/767 388/768 414/769 402/770
f 415/771 389/772 401/773 403/774
f 400/767 402/770 404/775 398/776
f 405/777 403/778 401/779 399/780
f 398/776 404/775 406/781 396/782
f 407/783 405/784 399/785 397/786
f 396/782 406/781 408/787 394/788
f 409/789 407/783 397/786 395/790
f 394/788 408/787 410/791 392/792
f 411/793 409/794 395/795 393/796
f 392/792 410/791 412/797 390/798
f 413/799 411/793 393/796 391/800
f 410/791 420/801 418/802 412/797
f 419/803 421/804 411/805 413/806
f 408/807 422/808 420/809 410/810
f 421/811 423/812 409/789 411/813
f 406/814 424/815 422/808 408/807
f 423/812 425/816 407/783 409/789
f 404/817 426/818 424/819 406/820
f 425/816 427/821 405/784 407/783
f 402/770 428/822 426/823 404/775
f 427/824 429/825 403/826 405/827
f 402/770 414/769 416/828 428/822
f 417/829 415/830 403/826 429/825
f 318/651 320/748 444/831 442/832
f 445/833 321/749 319/653 443/834
f 320/835 390/798 412/797 444/836
f 413/837 391/838 321/839 445/840
f 310/652 318/651 442/832 312/841
f 443/842 319/843 311/844 313/845
f 382/846 430/847 414/769 388/768
f 415/771 431/848 383/849 389/772
f 412/850 418/851 440/852 444/853
f 441/854 419/803 413/806 445/855
f 438/856 446/857 444/858 440/859
f 445/860 447/861 439/862 441/863
f 434/864 446/857 438/856 436/865
f 439/866 447/867 435/868 437/869
f 432/870 448/871 446/872 434/873
f 447/874 449/875 433/876 435/877
f 430/847 448/878 432/879 450/880
f 433/876 449/875 431/881 451/882
f 414/769 430/847 450/880 416/828
f 451/882 431/881 415/830 417/829
f 312/841 448/871 430/883 382/884
f 431/885 449/886 313/735 383/738
f 312/841 442/832 446/872 448/871
f 447/874 443/887 313/888 449/875
f 442/832 444/831 446/872
f 447/889 445/890 443/891
f 416/892 450/893 452/894 476/895
f 453/896 451/882 417/829 477/897
f 450/893 432/870 462/898 452/894
f 463/899 433/876 451/882 453/896
f 432/870 434/873 460/900 462/898
f 461/901 435/877 433/876 463/899
f 434/902 436/903 458/904 460/905
f 459/906 437/869 435/868 461/907
f 436/865 438/856 456/908 458/909
f 457/910 439/866 437/869 459/906
f 438/911 440/912 454/913 456/914
f 455/915 441/863 439/862 457/916
f 440/852 418/851 474/917 454/918
f 475/919 419/920 441/921 455/922
f 428/923 416/892 476/895 464/924
f 477/897 417/829 429/825 465/925
f 426/926 428/923 464/924 466/927
f 465/925 429/825 427/824 467/928
f 424/929 426/930 466/931 468/932
f 467/933 427/934 425/935 469/936
f 422/937 424/929 468/932 470/938
f 469/939 425/940 423/941 471/942
f 420/809 422/808 470/943 472/944
f 471/942 423/941 421/945 473/946
f 418/851 420/947 472/948 474/917
f 473/946 421/945 419/920 475/919
f 458/909 456/908 480/949 478/950
f 481/951 457/952 459/953 479/954
f 478/950 480/949 482/955 484/956
f 483/957 481/951 479/954 485/958
f 484/956 482/955 488/959 486/960
f 489/961 483/957 485/958 487/962
f 486/960 488/959 490/963 492/964
f 491/965 489/961 487/962 493/966
f 464/967 476/968 486/960 492/964
f 487/962 477/969 465/970 493/966
f 452/971 484/956 486/960 476/968
f 487/972 485/973 453/896 477/897
f 452/971 462/974 478/950 484/956
f 479/954 463/975 453/976 485/958
f 458/909 478/950 462/974 460/977
f 463/975 479/954 459/953 461/978
f 454/979 474/980 480/981 456/982
f 481/951 475/983 455/984 457/952
f 472/985 482/955 480/949 474/986
f 481/987 483/988 473/989 475/990
f 470/991 488/959 482/955 472/985
f 483/988 489/992 471/993 473/989
f 468/994 490/963 488/959 470/991
f 489/992 491/995 469/996 471/993
f 466/997 492/964 490/963 468/994
f 491/998 493/999 467/1000 469/1001
f 464/967 492/964 466/997
f 467/1000 493/999 465/170
f 392/1002 390/1003 504/1004 502/1005
f 505/1006 391/800 393/796 503/1007
f 394/1008 392/1002 502/1005 500/1009
f 503/1007 393/796 395/795 501/1010
f 396/1011 394/1008 500/1009 498/1012
f 501/1010 395/795 397/1013 499/1014
f 398/1015 396/1016 498/1017 496/1018
f 499/1019 397/1020 399/1021 497/1022
f 400/1023 398/1015 496/1018 494/1024
f 497/1025 399/1026 401/1027 495/1028
f 388/1029 400/1030 494/1031 506/1032
f 495/1028 401/1027 389/1033 507/1034
f 494/1035 502/1036 504/711 506/1037
f 505/1038 503/1039 495/1028 507/1034
f 494/1035 496/1040 500/1041 502/1036
f 501/1042 497/1043 495/1044 503/1045
f 496/1018 498/1017 500/1046
f 501/1042 499/1047 497/1043
f 314/1048 382/1049 388/1029 506/1032
f 389/1033 383/1050 315/1051 507/1034
f 314/758 506/1052 504/1053 322/759
f 505/1054 507/1055 315/701 323/763
f 320/1056 322/1057 504/1058 390/1059
f 505/1060 323/1061 321/1062 391/1063
